<svg height="512" viewBox="0 0 512 512" width="512" xmlns="http://www.w3.org/2000/svg"><g fill="#AAB4BE"><path d="M423.768 417.445c.078-.152-.688-.1-.823-.12.148.22 1.02.125.823.12zM424.702 420.625l-.253-.19c.02-.008.454.785.435.792 0 0-.04-.15-.078-.302-.045-.15-.104-.3-.105-.3zM422.77 422.986c.526.42.72.15.857-.175.11-.36.162-.766.502-.852l.29.105s-.17-.21-.342-.418l-.35-.402c-.174.6-.356 1.704-.958 1.743zM420.15 421.338c.28.427-.01.49.287.036-.047-.034-.067-.06-.098-.087-.033.025-.088.043-.19.05zM420.34 421.287c.147-.137-.315-.31 0 0zM419.58 421.914s.035-.124.06-.26c.02-.13.044-.26.044-.26-.156-.263-.358-.246-.355-.482-.142.286-.05.567.25 1.002zM419.55 422.897l.116-.227c-.063-.112-.11-.147-.116.227zM419.87 422.186c.01.01-.194.493-.204.485.098.193.23.592.114-.175.085.378.05.003.09-.31zM420.115 422.306c.264.218.58.257.427.814.562-.463.02-1.2-.427-.814zM423.466 424.142s.546.07.542.057l-.04-.552c.024.287-.766.202-.502.494zM417.502 421.448c-.037.276.195.737.24 1.09l.43-.316c-.222-.19-.64-.364-.67-.774zM417.74 422.54l-.644.474c.576.055.68-.17.645-.475zM419.82 424.318c.028-.007.433-1.14.397-1.152.043.016-.502 1.19-.536 1.205l.14-.052zM415.04 421.414l.366-.64-.65.966M413.41 421.525c.27-.53-.372-.896-.086-1.223-.443.095-.822.55-1.163.96.363-.23.75-.17 1.25.263zM411.59 421.858c.18-.127.367-.354.57-.597-.19.124-.38.3-.57.598zM416 422.877c-.05-.168-.147-.605-.508-.79l.253.778.254.012zM415.754 422.89l-.01-.024c-.273-.02-.464-.037-.546-.043.07.007.238.028.556.067zM416.063 422.88c-.023 0-.04-.002-.064-.003.023.076.038.102.063.003zM418.583 423.785c-.115.22-.288.463-.426.72-.165.25-.12.544.19.858.19-.544-.118-.905.236-1.578zM416.378 423.853l.685.178c-.014-.205-.138-.504.05-.72l-.735.543zM416.043 424.1l.335-.247-.254-.067M412.76 422.586c-.294.338-.618.367-.983.422.392.152.797.234 1.18.233.055-.244.224-.68-.196-.654zM414.216 422.802c-.02.014-.047.03-.066.045.04.065.073.087.066-.045zM408.18 423.002c.02.05.038.09.06.142l.013-.135-.072-.008zM413.023 423.386c.294.15.47-.04.638-.28-.22.078-.453.13-.703.136-.024.11-.028.183.066.144zM410.585 422.222c.153.162.327.3.51.428-.15-.247-.455-.63-.51-.428zM414.05 422.63c.016-.01.03-.025.045-.033-.097-.167-.084-.085-.044.034zM414.05 422.63c-.15.114-.27.306-.39.476.18-.06.346-.145.49-.26-.037-.055-.073-.138-.1-.215zM407.09 427.994c.054-.72.827-1.387 1.495-.614.657-.54.228-2.91-.347-4.236-.02.314-.02.604-.696 1.03.236.394 1.5.92.93 1.573-.896.37-.734-.255-1.17-.637.37.898-1.14 1.308-.944 2.628l.786-.465c.014.206-.27.534-.053.72zM409.527 423.217l.277-.09c-.316-.125-.544-.413-.962-.978-.463.352-.56.618-.59.858l1.37.1-.095.11zM411.055 423.124c-.218.784-.886 1.118-.477 1.967.816-.053.572-.653 1.06-.994-1.317.194.38-.437-.573-.882.26-.133.492-.174.712-.206-.237-.096-.466-.214-.682-.358l.03.048.007-.002-.002.013c.058.097.076.156.012.1-.004.01-.02.014-.027.016-.01.11-.033.204-.06.296-.382-.162-.06-.204.06-.296.004-.038.015-.075.016-.116l-.004-.01-1.32.43c.28.107.63.084 1.25-.006zM417.68 427.06c-.04-.07-.04-.126-.043-.183-.085.096-.117.16.043.182zM417.137 426.585c.096-.11.176-.424.487-.342.27.235 0 .376.013.634.188-.21.658-.563.068-.944l-.093.106c-.53-.27-1.215-1.248-1.122-1.356.156.706.292 1.21.647 1.9zM414.058 425.055l-1.1.385.56.68-.028-.408c.625.158.49-.344.568-.657zM408.055 422.61l.146-.827-.635 1.17M406.626 422.71l.054-.72-.378.435M288.603 77.066l3.502-.205c-1.657.065-2.722.133-3.502.206zM263.25 77.017l-.62.355c1.175-.196 1.656-.34.62-.355zM86.807 372.956c.673-5.102 1.715-10.8.906-10.184l-.79 1.565c.142 3.565.054 6.297-.116 8.62zM82.093 112.46c-.08.486-.16.992-.24 1.494.27 1.238.526 2.403.754 3.444l-.514-4.938zM78.825 108.862l.51-6.725c-.18 1.513-.348 3.676-.51 6.725zM429.94 81.81s1.142 1.063 2.055 2.39c.454.66.868 1.357 1.132 1.912.29.543.43.93.43.93-.712-2.47-1.69-3.83-2.27-4.655-.64-.795-.942-1.082-1.088-1.12-.268-.093.14.72-.26.543zM253.952 423.002c-4.403-.31-7.905-.438-10.983-.477 5.302.454 9.58 1.134 10.982.477zM278.627 85.445c2.144-.143 3.06-.304 2.996-.48-2.206.135-3.454.286-2.996.48zM230.256 422.528c.775.08 1.537.12 2.327.186 3.218-.133 6.455-.24 10.386-.188-3.918-.338-8.402-.547-12.714.002zM432.714 399.907c-.036.034-.053.074-.095.104.107.012.11-.034.094-.103zM424.746 413.4c-.05-.132-.05-.35-.06-.553-.055.1-.05.267.06.554zM350.256 422.367c3.285-.053.52-.088 0 0zM366.23 425.49c-.7.088-1.23.2-1.312.383.27-.19.728-.31 1.31-.384zM197.54 427.442c-.097 0-.174-.002-.285-.003.977.155.808.124.284.002zM355.198 422.726c-1.233-.097-2.654-.178-4.2-.234.68.06 1.955.137 4.2.234zM354.533 422.353l2.87.076c.415-.133.05-.215-2.87-.077zM345.68 422.408c1.878-.012 3.632.025 5.317.083-.646-.053-.915-.098-.74-.123-.965.01-2.323.02-4.577.04zM430.6 317.652c-.022.217-.05.467-.073.703.327 3.315.274 1.86.074-.703zM78.607 287.467l.038.375c.01-.154.02-.347.027-.486l-.065.11zM78.02 275.67c.982 5.023.86 7.88.653 11.686l2.277-3.9-2.93-7.787z"/><path d="M349.31 76.838l-8.287-.71c10-1.166 17.236-.764 9.456-1.762-1.17 2.473-32.203.254-33.355 2.723l-5.463-.52c1.565.023 1.816-.122 3.362-.098-10.62-1.184-7.89 1.788-21.575 1.435-4.77-.19-8.1-.548-4.848-.84l-10.626.61c-3.093-.05-2.337-.478.74-.43l-16.208.197.12-.072c-2.313.388-7.553.987-10.11 1.24-4.12-.353 2.065-.26 1.01-.57l-8.974.6c-3.656-.64 3.782-1.262 9.98-1.17-8.38-2.468-7.446.622-25.534-.82l8.473-.313c-5.462-1.402-12.077-.894-21.658-1.77 2.273.458 19.182 2.205 9.44 2.82-2.745-.187-6.362-.275-11.618.222-.048-.88-5.18-.663-11.6-.613l.438-1.165c-6.94.336-6.392.93-10.477 1.453-7.736-.115-9.34-1.016-11.16-1.776-12.39-.185 8.554 1.446-6.11 1.665-10.303-.445-17.538.03-29.865.728-7.21-.4 1.262-.712-1.325-1.045l-6.393.93c-1.565-.023-1.06-.31-.804-.453-5.385.36-.442 1.163-8.91 1.48-2.285 1.282-17.386-1.875-27.868-.418-2.582-.332 1.248-.714.458-1.165l-8.33.557c-2.745.262-4.597 1.145-6.12 2.144-1.51 1.03-2.763 2.26-3.892 4.133-.53.953-1.058 2.055-1.37 3.42-.147.683-.278 1.416-.308 2.21-.052.77.015 1.717.097 2.382l-.764 10.058c.874-7.39 1.908 2.052 2.758 10.323.423-2.62.793-4.86.97-6.363l.624 13.2c-.19 1.594-.59.264-1.078-1.9l.28 2.42c-.43 4.72-1.102 2.272-1.752-1.11l.717-4.753c-.706-3.26-1.49-6.31-2.17-5.63.134.856.25 2.51.315 4.325-.193-.853-.364-1.397-.48-1.002-.122.448.135 1.826.433 3.984l-1.298 3 .516.73-.813 17.268c1.307 12.356 3.23 23.103 3.765 42.713-.952-4.865-1.554-1.045-2.682-1.31 1.194-5.352-.507-15.188-.265-25.353-.124 5.304-.66 4.138-.85 2.79l1.087 18.126c-.922-.41-.69 3.85-1.073 8.584 1.823-3.58 1.214 13.512 1.772 20.887-.612.457-1.237-1.31-1.09-10.31-1.372 9.928 2.142 12.828.975 22.573-.013-2.197.08-3.382-.23-4.25.544 5.13.113 17.68-.42 14.727l-.012-2.192c-.216 14.586-.014 44.404 1.534 46.582-.2.145-1.866-1.913-2.18-2.794l5.21 26.026c-1.33-2.293-4.496 6.508-5.247-5.588-.19 3.474-.41 7.77.058 15.092.19-2.37 1.923-5.905 2.044-2.668-1.48 8.888-.792 6.17-2.054 17.125.285-3.55 2.37.395 2.303 6.007-.312-.877-2.058.467-2.275-1.585l2.048 13.97c-.37-3.488-1.735-.617-2.313 2.51.4-1.45-.037 12.076.166 15.8l.475-5.92c-.31 15.77 2.878 15.578 2.77 31.225-.422-1.894-2.6-4.678-2.858 3.28 1.048 3.646 5.04 16.146 5.85 29.99l-.6 2.655.107 1.66c.01.27.04.492.073.704.03.222.05.457.12.69.1.477.26.967.468 1.432.408.938 1.027 1.747 1.55 2.277.535.522.943.796.943.796-1.148-.482-2.896-1.667-3.887-4.043-.49-1.12-.685-2.724-1-4.303l-.892-4.93c-1.188-6.732-2.34-13.906-2.987-18.974-.474 5.9-.705 1.643-.65 10.48-.563 3.123-.853-4.815-.886-7.417l-.363 20.577c.307-.23.537.64.726 2.062l.143 1.236c.07.604.125 1.24.284 1.89.255 1.307.747 2.66 1.41 3.897 1.298 2.52 3.438 4.417 5.156 5.382.44.23.845.424 1.198.58.367.134.682.233.934.298.5.138.77.083.69-.07 0 0-.11-.032-.312-.11l-.862-.37c-.732-.34-1.76-.897-2.837-1.79-1.08-.88-2.215-2.1-3.11-3.642-.9-1.53-1.545-3.387-1.758-5.31-.11-1.077-.12-1.654-.166-2.36l-.115-2.02-.202-3.58c-.12-2.095-.198-3.49-.198-3.49.61-.454 1.48 2.777 2.168 7.944l.25 2.024.06.543.09.646c.044.433.154.863.26 1.297.427 1.733 1.288 3.438 2.525 4.89 1.215 1.468 2.847 2.64 4.68 3.406.93.343 1.893.652 2.9.756.496.097 1.006.073 1.51.113l1.365.013c3.667.473-2.596 2.225-2.886 2.498l1.556-.066c.51-.05 1.137-.1 1.84-.144 1.408-.09 3.12-.168 4.816-.224 3.39-.11 6.712-.133 7.38.017l-6.184.654c8.117.46 13.247-1.622 23-.454 3.368.078 10.055 1.575 10.637.852-5.49-1.396-6.565-5.715-2.905-6.764 1.18.095 17.68 1.336 21.523 2.025 5.544 1.095-8.324 2.608-3.603 3.55.202-.335 3.266-.747 4.542-.88 3.536.285-1.464 1.035 6.22.885 1.28-1.24 15.626.104 3.63-1.05 7.516-.353 7.988.256 16.813.202-2.808-.802 7.924-2.73 15.454-3.082-.442.314 1.25.727 2.067.913 15.405.112 23.676.675 38.04.687 1.326.3 8.258.663 5.305 1.197 2.067-.22 3.965-.64 8.396-.67 8.574 1.073-9.88.167-3.343 1.456.56-.72 11.46-.995 17.77-1.445-1.94-1.113-14.58-.213-20.9.236-.03-1.535 10.972-3.144 25.987-3.854 11.933-.38 5.174.992 7.245.774 22.414.27 19.095-2.682 37.71-1.573 7.383.98.33 1.947 1.97 2.653-9.722.37-14.925-.62-21.515-.582l8.112.464c-3.093.325-9.58.572-13.117.288 6.19.88 37.868.17 55.16.98 3.074-.328 8.378-.667 5.868-1.06l-5.473.136c-5.028-.79 10.3-1.09 3.372-1.46 7.342-.555 15.57-1.427 25.902-.98l1.94 1.116c-.22-.326-6.753-.665-9.658-.325 4.307-.495 15.844 1.51 20.564.05l-7.245-.774c7.37-.56 16.48-1.745 25.637-1.394-4.166-1.102-2.11.127-8.617-1.163 5.64 1.603-23.426-.068-14.365 1.617-6.676-1.496-11.556-.635-20.284-1.91.27.368 3.092.704-4.596.522-.347.106-1.166.243-1.687.323l-.52-.027.424.043c-.334.055-.362.066.158.015 1.83.16 3.313.354 3.916.56-3.815.846-16.04.818-20.174 1.256-4.563-.174 1.907-.42-.583-.813l-6.176.653c-.61-.817-12.12-1.357-1.372-1.837l-9.673-.036c-5.693-.46-13.526-.64-18.357-.297-4.563-.177-11.523.904-7.55.265l-15.168.507-.14-.204c-14.967-.104-30.81 1.354-47.92-.122-5.04.206-10.247.46-18.677.227l-1.643-.707c-6.47.247-19.428-.708-22.207.03-6.98-1.904-31.398-.417-42.776-.754l-.43.923c-7.832-.052-15.342.21-25.062.58l.597.816c-4.19.336-9.578.19-15.574-.027l-9.378-.332-4.894-.11-.292-.007-.186-.018-.372-.022c-.242-.05-.49-.07-.728-.132-.476-.12-.95-.273-1.39-.504.313-.015.89.19 1.595.34.18.02.36.062.55.096.197.01.367.036.592.064.664.03 1.32.07 1.916.117-.953-.112-2.163-.208-2.54-.32-.552-.15-1.07-.353-1.566-.603-.968-.538-1.833-1.297-2.412-2.243-.304-.463-.536-.97-.68-1.5-.102-.26-.123-.538-.185-.81-.01-.142-.025-.28-.045-.42-.02-.145-.02-.483-.032-.716l-.268-6.15c-.397-8.17-.858-16.156-.187-23.338-.297-3.58-.196-6.17.01-8.68 0 .33.016.63.04.886l.012-1.47c.14-1.58.303-3.208.434-4.97-.197 1.497-.36 2.933-.437 4.18-.017-2.76-.118-6.946-.322-11.05l.877-1.75c-.01-.33-.016-.602-.025-.948.324-4.027-.415-3.237-1.074-1.09-.144-2.065-.317-3.958-.528-5.428 1.414-3.27-.477-10.766 1.032-15.23-.736-2.766-.554-20.633-2.102-22.82.2-.14.297-1.35.31.867.177-4.577.353-9.148-.082-13.252l1.113-1.94-1.497-9.992c.68-6.07 1.074-8.584 1.932-2.558-1.32-14.553-.497-11.807-1.804-24.182l.72.602c-.027-4.422-.992-11.493-.396-14.162 1.37-9.895.19-48.96 1.462-74.362-2.12 4.928.95-11.807-.693-12.813.5-1.478.785-5.02 1.22-.905-.492-12.963.797-19.476-.59-28.426.504-1.484.736 2.774 1.033 1.454-.108-1.04-.437-4.12-.137-5.468.298-1.32.42 1.898.64 3.95-.085-13.242-1.63-14.582-3.083-15.545.688-6.71.59-10.057-.362-14.903.475-2.336.972-6.233 1.143 1.994.035-2.313.208-9.383.23-15.932v-1.825l.023-.422c.012-.546.126-1.067.248-1.563.263-.994.744-1.84 1.23-2.514 1.003-1.335 1.996-1.978 1.94-2.276.547-.138 1.668-.577 2.852-.677.502-.06 1.394-.078 2.04-.112.665-.034 1.207-.072 1.51-.105 10.387.07 11.302.174 21.5.064l-2.828-.19c4.027-1.403 8.478-.313 16.7-.482l-.235.144c18.854 1.01 8.14-.486 26.74.67l-1.012-.874c1.734-1.877 16.48 1.108 27.274.39l-3.898-.5c5.896-.64 16.48 2.555 22.4 2.79 1.29.164-2.038.262-3.84.383 15.502 1.106 2.01-1.145 13.56-1.41 2.13.617-2.745 1.568 5.03 1.683 3.873.5 22.55-2.002 33.156-.82-2.336-.475-4.658-.95.708-1.306 8.223-.17 22.23 1.796 29.66.298 1.044.13 1.438.254 1.482.372 6.286-.386 20.43-.642 24.216-1.455 5.81 3.016 39.08-1.466 38.94 1.314l19.337-.15-.505.285c12.36.185 16.73-.48 21.075-1.15 2.856.19.77.45.534.596 9.03.28 13.994.39 18.593.258 2.3-.066 4.508-.193 7.088-.39l4.206-.35 2.42-.216.647-.06c.173-.01.348-.02.524-.032.355-.046.712.007 1.093.006 0 0 .257.303.477.59.113.135.21.3.28.416l.115.193c.367.045.886.28 1.51.668.6.42 1.276 1.05 1.83 1.922.56.868.937 1.99 1.024 3.216.013.153-.004.312 0 .468 0 .156.006.295-.008.56l-.055 1.43-.11 3c-.287 8.23-.51 18.158.018 27.014-.103-.173-.277-.54-.404-1.946 1.06 19.928-2.502 47.708.783 55.01l.81 13.152c.256-17.014 1.426 2.534 1.972-4.465.193 6.69-.99 17.297-1.16 9.074l.165-1.286c-1.713-3.02-.607 21.142-1.773 20.685.084 33.48-.863 66.11-.937 97.47l1.33-3.613-.075 10.94c-.31 2.87-1.04 3.854-.986-3.95-.756 4.104.63 13.088.92 13.31-.54 15.28-1.552-5.97-1.583-1.28l.1 6.362.154-1.436c.545 5.16 1.122 5.616 1.056 14.995-.266 5.937-.82 3.046-.872 5.382-.094-.014-.14.775-.038 3.584l-.114 13.782 1.052-5.51c.518 6.106-.056 12.957 1.136 6.6-.23 1.166-.412 2.844-.557 4.9-.072 1.026-.136 2.147-.19 3.347l-.075 1.854-.034.874-.03.092c-.157.493-.2 1.075-.203 1.647-.006 1.144.147 2.246-.14 2.51.768.79.754 1.568.66 2.534.22-.24 1.4-.384 1.257.448-2.438-.305-1.058 1.524-2.813 2.197 1.163-.602.287 2.365 1.94 1.422-.198.695-.914.043-1.488.57.945 1.652-.613 3.642-.295 5.686.32.03.81-.31 1.287.128l-1.6 1.078c.156.403 1.847.372.735 1.11.27-.105.676-.26.778.01-1.56 4.003 1.277 8.18-1.653 12.243.62-.55.682-.184.705.236.148-.273.79.006 1.225-.048l-1.205 1.702c1.204.31.082 1.824 1.232 2.002l-.207-.54c1.358.718 3.02-1.002 4.764-.896-1.544-.803 2.288-2.116.077-3.433.355-.29.562.248.966.092-.747-.333-.903-.736-.568-1.483l.186.085c-.182-2.1.556-2.998 1.046-5.355l-.862.175c.115-.507.386-.613.602-.85-1.307-.582-.073 1.422-1.515.892 1.755-.672.027-3.572 2.02-4.026.012-.78-.997.23-.985-.55l.54-.208-.696-.196c.114-.51.79-.77 1.246-.788-.055.124.128.353.167.485.635-.662-.217-1.868-.01-2.096l-.333.75c-.505-2.127.204-4.724-.893-6.778l-.407.156c-.753-1.57.446-1.257.1-2.98l.096.064c-.405-.345-.61-.805-.563-1.276.477.436.926-.818 1.454-.248-.81-1.7-.636-.84-2.147-1.965l.675-.26c-.61-.383-.933-.414-1.106-1.274.578.704 1.027-.55 1.793.24.737-.903.365-1.573.078-2.12-.143-.275-.265-.52-.217-.745.024-.113.092-.223.22-.33.032-.026.068-.053.108-.08l.064-.038.07-.424c.097-.567.212-1.13.347-1.69-.466-2.248-.765-2.314-.955-1.226-.096.544-.165 1.376-.214 2.368-.01.248-.02.506-.033.77l-.008.2-.008.02-.013.038c-.017.052-.03.105-.04.16-.074.436.033.918-.167.686-.305.193-.654.022-.903-.27-.125-.144-.225-.32-.28-.493-.015-.044-.026-.087-.035-.13-.006-.43-.01-.852-.017-1.265-.005-.897.004-1.75.027-2.52.042-6.252 2.39-10.63 2.354-26.358-.01 1.565.132 1.672.124 3.232.477-5.887-.646-11.532.13-18.753-1.13-4.047.063-9.374-1.377-10.54l.333 14.428c-.376-8.18-2.063-15.848-1.245-29.32.29 1.05.673 5.058.887 7.812.425-3.94-.282-7.587.155-11.672 1.44 1.166.313 17.534 1.412 26.297.607-4.23-1.045-16.576.517-12.173-1.986-6.33.25-15.497-1.266-26.147l.864.703c-.136-1.686-.543-5.178-.52-8.28l1.12 5.616c-.957-8.622.834-16.623.314-24.895.026 17.318-1.04 3.89-1.672 11.21-1.155-21.358 2.26-12.283 1.846-36.195.122 3.237-.52 12.154-.92 7.09.18-4.55.51-10.563.963-13.357-.18-15.843-.888 2.433-1.42-4.31 1.054-5.397-.427-7.78-.765-14.727l.88-.047c.562-18.055-1.83-4.788-1.15-21.04l1.218 6.868-.314-8.472.998 1.75c-.74-9.22-.55-12.092-.27-21.124-.618 2.1-1.593-1.18-1.62-9.177.52-5.453.835 3.054.71-8.28.55 2.557 1.238 5.36.43 10.293.286.506.55 2.524.833 3.044.6-5.872.137-14.76.13-18.864-.033 1.58-.08 3.468-.206 4.437l-1.218-16.43c.33-2.588.595-.536.854 1.497-.095-3.33-.498-5.63-.573-10.525.714 1.266 1.45.962 1.786 7.89l-.793-15.656c.31-1.045.853-8.035 1.115-6.002.21-4.34-.136-9.664-.466-15.34-.165-2.838-.325-5.765-.41-8.7l-.027-1.103-.02-.605-.046-.82c-.072-1.092-.287-2.175-.585-3.227-.605-2.105-1.675-4.042-3.044-5.696-.346-.29-.845-.737-1.647-1.345-.81-.588-1.91-1.377-3.57-2.067-1.793-.84-3.744-1.31-5.686-1.387l-4.05-.138-7.906-.242c-5.35-.117-10.95-.09-17.358.398l-7.273-1.278c-10.04.29 9.846 1.612-6.87 2.094-11.835.41-4.417-1.09-8.57-1.447-5.885.645-16.117 1.957-26.99.915 3.596-.24 6.42-.052 9.782-.147zm-123.816.567c2.4-.184 7.182-.753 8.936-.235-2.732 1.007-4.847.525-8.936.235zm-145.09 53.283c-.29-1.782-.146-4.542.187-7.654.073 2.26.04 4.817-.185 7.654zM314.253 423.08c-.1.015-.173.025-.255.044-5.35-.342-3.454-.208.255-.043zm11.113.383c1.118-.123 1.04-.245.568-.368-.775.223-3.27.237-6.112.176.79.23 2.227.39 5.545.193zm99.326-70.728l.23-2.163c.253 4.885.024 3.517-.23 2.163z"/><path d="M79.204 109.35c.148-.68.313-.868.477-1.027-.147-.945-.317-.964-.476 1.026zM429.073 81.06l.37.423c.246.196.402.283.498.327 0 0-.213-.194-.43-.38l-.437-.37zM153.226 430.906c-2.288-.126-3.565-.287-4.413-.453-.125.215.916.397 4.413.453zM384.255 421.97l-7.12.23c3.444-.044 4.673.147 6.412.287-.16-.206-1.518-.503.708-.517zM409.714 427.403c.096-.107.203-.012.298-.12l-.026-.408c-.41.026-.695.355-.272.528zM390.845 424.887c.563.74 5.03.488 10.015.352-.3.002-.583.008-.882 0 1.47-1.035-3.844-.693-9.133-.353zM402.016 425.213l2.317-.035h1.154l.538.007.053.01c.014-.103.01-.16-.008-.186-.01-.015-.02-.02-.036-.02l-.468.02c-.882.043-2.18.15-3.55.203zM339.46 422.973c2.365.19 1.484-.944 2.823-.644 2.64-.94-15.766 1.137-2.823.643zM394.88 427.32l-1.786-.91-2.794.735M355.51 426.65l7.97.254c-.12-.153.89-.243 2.133-.312-4.91-.03-10.29-.21-10.102.06zM365.612 426.593c2.558.02 4.99-.002 6.412-.15-1.382.008-4.36.038-6.412.15zM383.99 427.595l-2.356-.19-5.626-.068M269.862 426.476l-8.694.262c-.887.312 1.483.504 4.72.38 2.082-.22 5.31-.34 3.974-.642zM296.16 428.973c-2.352-.19-2.51-.393-3.835-.692l-.266 1.13 4.1-.437zM270.802 429.236c-.867.314-12.62.9-1.6.83.882-.31 9.592-.572 1.6-.83zM139.78 427.807l2.212-.015-.318-1.854M77.358 365.046c-.444 10.304 1.144 2.447.59 11.76.438 2.417.452-7.612.83-5.132-.462-6.22-.2-9.485-1.42-6.628zM78.778 371.674c.073.998.162 2.053.282 3.175-.116-1.803-.205-2.65-.282-3.176zM423.75 415.64l-.386.612.622-.395M425.125 416.814l-1.182.144 1.07.367c-.053-.137-.155-.406.112-.51zM207.088 75.025l-.506.285c1.026.307 2.577.33 5.684.378l-5.178-.663zM296.95 75.91l-1.546-.025 2.89 1.07M372.372 74.547c-3.078-.044-6.695.194-9.788.148 6.71-.192 10.622 1.184 9.788-.148z"/></g><g fill="#AAB4BE"><path d="M464.28 59.424c-.05.392.705.25.845.31-.194-.69-1.043-.28-.845-.31zM461.16 53.97l.322-.05-.526-.204-.543-.165.382.198c.186.104.365.22.365.22zM457.837 49.854c-.208.657.143.92.64 1.16.46.263 1.08.52 1.176 1.045l-.142.302.544-.147.553-.133c-.824-.936-2.394-1.45-2.77-2.228zM456.682 45.808c-.035.555-.854.05.644.51-.04-.09-.044-.128-.063-.187-.13-.057-.3-.144-.58-.322z"/><path d="M457.262 46.132c.614.312-.19-.593 0 0zM454.256 45.185c0-.02.996-.133.996-.133-.073-.348-.845-.69-.485-.793-1.012-.033-.87.324-.51.925zM453.216 45.89l.47-.075c-.04-.14-.15-.213-.47.076z"/><path d="M454.703 45.71l-.51.033-.51.072c.067.235-.05.638.456-.028-.184.346.093.04.563-.078zM455.14 46.08c.356.428.8.837-.12.928.74.213 1.154.14 1.207-.096.046-.215-.282-.632-1.088-.832zM456.797 50.75s.154.593.144.6l.602-.043c-.286.01-.506-.904-.745-.556zM449.155 43.858c-.037.276.195.737.24 1.09l.43-.317c-.22-.188-.64-.362-.67-.772zM449.395 44.948l-.645.475c.575.056.68-.17.645-.475zM452.745 47.26l.797-.31c.413-.16.835-.254.835-.253 0 0-.49.077-.97.226-.476.136-.92.287-.92.287l.258.05zM446.694 43.823l.366-.64-.65.967M445.063 43.936c.27-.53-.37-.897-.085-1.223-.443.095-.822.55-1.163.96.362-.23.748-.17 1.248.263zM443.242 44.268c.18-.127.368-.354.572-.596-.192.12-.38.298-.572.596zM447.652 45.286c-.05-.167-.146-.604-.507-.79l.253.778.254.012z"/><path d="M447.408 45.3l-.01-.026c-.274-.02-.465-.037-.547-.043l.558.07zM447.717 45.29c-.023 0-.04-.002-.064-.003.024.076.038.1.064.003zM450.644 46.253c-.263.204-.673.41-.833.66-.133.26-.188.528.262.878.353-.515-.213-.92.572-1.537zM448.03 46.262l.686.178c-.014-.205-.138-.504.05-.72l-.735.542z"/><path d="M447.696 46.508l.335-.246-.253-.066M444.414 44.996c-.295.338-.62.367-.984.422.392.153.797.234 1.18.233.055-.244.224-.682-.196-.654zM445.87 45.21l-.067.045c.04.067.073.088.066-.044zM439.834 45.412l.058.14.014-.133-.072-.008zM444.677 45.795c.294.15.47-.04.638-.28-.22.08-.454.13-.704.135-.024.11-.028.184.067.145zM442.238 44.63c.153.164.327.3.51.428-.15-.245-.455-.63-.51-.427zM445.704 45.04c.015-.012.028-.026.044-.034-.097-.167-.084-.085-.044.035z"/><path d="M445.704 45.04c-.15.113-.27.305-.39.475.18-.06.345-.145.488-.26-.035-.054-.072-.138-.098-.214zM438.744 50.404c.053-.72.826-1.387 1.494-.614.657-.54.228-2.91-.347-4.237-.02.314-.02.605-.695 1.03.236.395 1.5.922.93 1.574-.896.37-.734-.255-1.17-.636.37.9-1.14 1.308-.944 2.628l.787-.465c.015.206-.27.533-.053.72zM441.18 45.626l.28-.09c-.318-.124-.546-.413-.964-.977-.463.35-.56.62-.59.858l1.37.1-.095.108zM442.708 45.534c-.218.784-.886 1.118-.477 1.967.817-.054.573-.654 1.062-.995-1.318.194.378-.437-.574-.88.26-.134.492-.175.712-.208-.237-.096-.466-.214-.682-.36l.03.05.007-.003-.002.012c.058.098.076.157.012.1-.004.01-.02.015-.027.017-.01.11-.033.204-.06.296-.382-.163-.06-.205.06-.297.004-.04.015-.075.016-.117l-.005-.01-1.32.43c.278.11.628.088 1.248-.002zM449.333 49.468c-.04-.07-.04-.125-.043-.182-.085.096-.117.162.043.182z"/><path d="M448.79 48.995c.096-.11.176-.423.487-.342.27.236 0 .376.013.634.188-.208.658-.563.068-.944l-.093.106c-.53-.27-1.215-1.25-1.122-1.356.156.705.293 1.208.647 1.9zM445.71 47.465l-1.1.384.56.678-.027-.408c.626.16.49-.342.568-.655zM439.708 45.02l.146-.827-.635 1.17M438.28 45.12l.053-.72-.378.435M299 454.65l4.184-.206c-1.98.065-3.25.133-4.184.205zM268.718 454.6l-.742.355c1.404-.195 1.98-.34.742-.354zM46.08 113.48c-.672 6.094-1.714 12.9-.905 12.165l.79-1.87c-.142-4.258-.053-7.52.116-10.294zM50.795 424.63c.08-.58.16-1.185.24-1.783-.27-1.48-.526-2.87-.754-4.114.156 1.772.33 3.786.515 5.897zM54.063 428.928l-.51 8.033c.18-1.806.348-4.39.51-8.032zM454.663 449.534c.01.002-.035-.153-.104-.372-.016-.054-.03-.112-.047-.174l-.066-.394c-.047-.286-.098-.59-.147-.896l-.402-2.44.02 2.378c.02.594.033 1.055.044 1.41.033.318.085.457.142.506.13.107.388-.175.56-.018zM256.034 45.412c-5.26-.31-9.442-.438-13.12-.477 6.336.453 11.446 1.134 13.12.477zM287.084 463.028c2.56-.143 3.654-.304 3.58-.48-2.636.136-4.126.286-3.58.48zM227.73 44.938l2.78.186c3.844-.132 7.71-.24 12.405-.188-4.677-.34-10.034-.546-15.184.002zM455.355 77.153c.036-.034.053-.074.095-.105-.107-.01-.112.036-.095.105zM463.323 63.658c.05.133.05.35.06.554.055-.1.05-.266-.06-.554zM371.064 44.776c3.925-.05.623-.088 0 0zM390.145 47.9c-.834.087-1.468.2-1.565.383.32-.19.868-.31 1.565-.384zM188.65 49.852c-.114 0-.206 0-.338-.002 1.168.154.966.124.34.002zM376.968 45.135c-1.473-.097-3.17-.178-5.017-.235.812.062 2.337.14 5.018.235zM376.174 44.762l3.43.077c.495-.133.057-.216-3.43-.078zM365.6 44.818c2.243-.012 4.337.025 6.352.082-.77-.053-1.094-.098-.887-.124-1.15.01-2.774.022-5.466.042zM457.47 171.71c.022-.258.05-.557.073-.84-.327-3.957-.274-2.22-.074.84zM54.28 215.594l-.037-.45c-.01.185-.02.415-.027.582l.065-.132zM54.87 229.685c-.984-6-.863-9.414-.655-13.96l-2.277 4.662 2.93 9.298z"/><path d="M371.51 454.422l-9.896-.71c11.945-1.167 20.587-.765 11.295-1.763-1.4 2.472-38.465.253-39.84 2.722l-6.525-.52c1.87.024 2.17-.12 4.017-.097-12.688-1.184-9.425 1.787-25.77 1.436-5.697-.188-9.674-.548-5.79-.84l-12.692.61c-3.694-.05-2.79-.478.886-.43l-19.36.196.143-.072c-2.763.388-9.022.987-12.078 1.242-4.92-.354 2.47-.262 1.208-.57l-10.72.6c-4.366-.642 4.518-1.263 11.923-1.17-10.012-2.47-8.896.62-30.5-.82l10.12-.314c-6.525-1.4-14.425-.894-25.87-1.77 2.717.458 22.913 2.205 11.28 2.82-3.28-.187-7.602-.275-13.88.223-.057-.88-6.185-.663-13.854-.613l.523-1.164c-8.292.335-7.635.928-12.515 1.452-9.24-.114-11.157-1.017-13.332-1.776-14.8-.185 10.22 1.446-7.296 1.666-12.308-.445-20.95.03-35.674.727-8.613-.4 1.508-.712-1.582-1.045l-7.635.93c-1.87-.023-1.267-.31-.962-.453-6.433.36-.53 1.163-10.645 1.48-2.728 1.28-20.766-1.875-33.286-.42-3.084-.33 1.49-.712.547-1.163l-9.767.53-3.183.177c-.275.02-.345.01-.518.02-.147-.002-.297.027-.438.01-.284-.028-.568-.017-.837-.08-1.087-.167-2.133-.526-3.304-1.393-1.11-.88-2.51-2.33-2.912-5.105l.764-12.013c-.874 8.826-1.908-2.45-2.758-12.33-.422 3.13-.792 5.805-.968 7.6l-.625-15.765c.19-1.905.59-.316 1.078 2.267l-.28-2.89c.43-5.638 1.102-2.715 1.752 1.324l-.717 5.68c.707 3.896 1.49 7.537 2.17 6.726-.133-1.023-.25-2.997-.314-5.167.193 1.02.364 1.67.48 1.197.122-.535-.135-2.18-.433-4.76l1.298-3.583-.515-.868.813-20.627c-1.307-14.76-3.23-27.596-3.766-51.02.952 5.812 1.555 1.248 2.682 1.565-1.194 6.392.507 18.142.265 30.282.124-6.335.66-4.943.85-3.332l-1.087-21.65c.922.488.69-4.6 1.073-10.254-1.823 4.274-1.214-16.14-1.772-24.95.612-.545 1.237 1.566 1.09 12.314 1.372-11.858-2.142-15.322-.975-26.963.013 2.624-.08 4.04.23 5.075-.544-6.128-.113-21.116.42-17.59l.012 2.618c.216-17.422.014-53.04-1.534-55.64.2-.17 1.866 2.285 2.18 3.338l-5.21-31.088c1.33 2.74 4.496-7.773 5.247 6.674.19-4.148.41-9.28-.058-18.027-.19 2.83-1.923 7.054-2.044 3.188 1.48-10.616.792-7.37 2.054-20.455-.285 4.24-2.37-.472-2.303-7.175.312 1.047 2.058-.558 2.275 1.893l-2.048-16.686c.37 4.166 1.735.737 2.313-2.998-.4 1.732.037-14.425-.166-18.873l-.475 7.072c.31-18.838-2.878-18.608-2.77-37.296.422 2.26 2.6 5.587 2.858-3.918-1.048-4.356-5.04-19.287-5.85-35.823l.6-3.17-.107-1.982-.05-.96c-.023-.328-.008-.827-.006-1.262.014-.453.085-.92.136-1.397.103-.467.18-.954.324-1.42.535-1.892 1.586-3.616 2.574-4.73.487-.562.945-.993 1.275-1.277l.532-.437c-.912.87-1.87 2.077-2.61 3.584-.74 1.504-1.21 3.34-1.192 5.258-.02.476.068.963.103 1.443l.212 1.337.437 2.78.89 5.886c1.19 8.043 2.342 16.612 2.988 22.665.475-7.048.706-1.962.652-12.52.562-3.73.852 5.753.885 8.86l.363-24.58c-.306.273-.536-.765-.725-2.46-.094-.78-.185-2.095-.226-2.5-.007-.61.096-1.273.33-1.916.232-.644.595-1.257 1.016-1.777.42-.526.915-.92 1.34-1.25.876-.625 1.553-.91 1.34-1.136l-.192.066c-.125.044-.314.09-.535.205-.46.172-1.075.542-1.71 1.077-.634.543-1.257 1.308-1.688 2.222-.423.918-.614 1.97-.56 3.005l.63 13.302c-.612.54-1.48-3.318-2.17-9.49-.078-.772-.162-1.58-.248-2.42l-.116-1.282c-.007-.364-.063-.72-.032-1.09.038-1.48.554-3.075 1.58-4.452 1.03-1.358 2.555-2.5 4.353-2.988.44-.146.908-.203 1.372-.275.462-.03.936-.064 1.5-.056l3.25.012c4.43.487-3.314 2.178-2.952 2.586 2.26-.42 16.53-.804 18.13-.506l-7.388.655c9.695.46 15.823-1.622 27.475-.454 4.022.078 12.008 1.576 12.704.85-6.558-1.395-7.84-5.713-3.468-6.763 1.41.094 21.116 1.335 25.708 2.024 6.623 1.095-9.943 2.61-4.304 3.55.24-.335 3.9-.747 5.426-.88 4.223.286-1.75 1.036 7.428.884 1.53-1.24 18.665.105 4.338-1.048 8.976-.354 9.54.254 20.08.2-3.353-.8 9.466-2.728 18.46-3.08-.53.314 1.49.726 2.467.913 18.4.112 28.28.675 45.438.687 1.582.3 9.862.664 6.335 1.198 2.468-.22 4.735-.64 10.03-.67 10.24 1.072-11.802.167-3.994 1.456.667-.72 13.688-.995 21.226-1.445-2.318-1.114-17.417-.214-24.965.235-.035-1.535 13.107-3.144 31.042-3.854 14.252-.38 6.18.993 8.654.775 26.773.27 22.81-2.682 45.042-1.574 8.82.98.396 1.948 2.353 2.654-11.61.37-17.825-.622-25.696-.582l9.688.463c-3.694.325-11.444.572-15.668.288 7.394.88 45.23.17 65.888.98 3.67-.328 10.006-.667 7.008-1.06l-6.536.136c-6.007-.79 12.302-1.092 4.027-1.46 8.77-.555 18.597-1.427 30.938-.98l2.318 1.115c-.265-.326-8.066-.665-11.536-.325 5.144-.495 18.925 1.51 24.563.05l-8.654-.774c8.804-.56 19.684-1.746 30.622-1.394-4.978-1.102-2.52.126-10.294-1.164 6.738 1.604-27.98-.067-17.157 1.62-7.976-1.498-13.804-.636-24.23-1.912.323.368 3.694.704-5.488.522-.415.107-1.394.244-2.015.324l-.622-.027.507.043c-.397.055-.432.066.19.015 2.186.16 3.958.354 4.677.56-4.557.845-19.16.82-24.097 1.256-5.45-.176 2.278-.423-.696-.816l-7.376.654c-.73-.818-14.477-1.358-1.64-1.837l-11.554-.036c-6.802-.458-16.157-.64-21.928-.297-5.45-.177-13.764.905-9.017.265l-18.12.506-.167-.205c-17.877-.103-36.8 1.354-57.24-.122-6.018.207-12.237.46-22.307.227l-1.962-.707c-7.728.247-23.205-.707-26.525.03-8.338-1.903-37.504-.416-51.095-.753l-.512.923c-9.356-.052-18.326.21-29.938.58l.713.816c-5.005.335-11.44.19-18.602-.028l-11.2-.332-5.847-.112-1.477-.016-.74-.006-.37-.002-.503.017c-1.382.018-2.763.308-4.074.752.646-.398 2.417-1 4.545-.98 1.495.005 3.21.072 4.63.167-1.182-.115-2.373-.21-3.57-.29l-.9-.054c-.12-.012-.36-.01-.574-.01l-.65.01c-.867.037-1.746.138-2.6.353-3.44.793-6.552 2.97-8.518 5.953-.99 1.485-1.696 3.175-2.056 4.937-.172.88-.284 1.774-.29 2.667-.018.506 0 .75.006 1.067l.026.922.268 7.35c.397 9.757.858 19.296.187 27.874.296 4.275.195 7.37-.01 10.37-.002-.398-.017-.755-.042-1.06l-.01 1.755c-.14 1.888-.28 3.834-.435 5.94.198-1.79.362-3.505.438-4.996.018 3.297.12 8.297.323 13.2l-.876 2.088c.01.397.016.72.025 1.133-.324 4.81.415 3.867 1.074 1.3.144 2.47.317 4.73.528 6.485-1.414 3.907.477 12.86-1.032 18.193.736 3.303.554 24.644 2.102 27.256-.2.166-.297 1.61-.31-1.037-.177 5.466-.353 10.927.082 15.83l-1.113 2.318 1.498 11.935c-.68 7.25-1.073 10.253-1.93 3.055 1.318 17.382.496 14.103 1.803 28.884l-.72-.72c.028 5.283.993 13.73.397 16.917-1.37 11.82-.19 58.483-1.462 88.823 2.12-5.886-.95 14.103.693 15.306-.5 1.765-.784 5.994-1.22 1.08.493 15.483-.796 23.263.59 33.954-.503 1.77-.735-3.314-1.032-1.738.108 1.243.437 4.92.137 6.53-.3 1.577-.42-2.267-.64-4.718.084 15.817 1.63 17.417 3.082 18.567-.688 8.016-.59 12.015.362 17.803-.476 2.79-.973 7.445-1.144-2.382-.035 2.765-.208 11.208-.23 19.03l.002 1.48c.03.632.042 1.26.16 1.873.17 1.23.557 2.397 1.045 3.453.99 2.118 2.46 3.755 3.94 4.817 1.475 1.077 2.908 1.642 3.954 1.883 1.052.23 1.7.23 1.81.092.26.075.605.17 1.017.234.392.042.937.095 1.364.106.828.02 1.786.017 2.734 0 1.897-.03 3.76-.117 4.488-.184 12.405.07 13.5.174 25.68.063l-3.378-.19c4.81-1.402 10.127-.313 19.95-.48l-.283.144c22.52 1.01 9.723-.486 31.938.67l-1.208-.874c2.07-1.877 19.684 1.107 32.578.39l-4.655-.5c7.043-.642 19.684 2.555 26.755 2.79 1.542.162-2.434.26-4.585.382 18.516 1.107 2.4-1.144 16.197-1.41 2.543.617-3.28 1.57 6.007 1.684 4.626.5 26.934-2.002 39.604-.82-2.79-.475-5.563-.948.847-1.306 9.82-.17 26.554 1.797 35.426.298 1.25.13 1.72.255 1.772.373 7.51-.387 24.402-.643 28.925-1.455 6.938 3.016 46.68-1.466 46.514 1.314l23.096-.148-.604.283c14.765.186 19.983-.48 25.173-1.15 3.41.19.92.45.638.597 10.786.28 16.716.39 22.21.258 2.745-.066 5.384-.193 8.465-.39.77-.053 1.568-.105 2.402-.162l2.683-.2c2.282-.187 4.76-1.047 6.85-2.822l.37-.1c.23-.058.518-.162.81-.278.596-.213 1.167-.516 1.167-.516.502-.613 1.247-1.59 1.98-2.992.72-1.4 1.37-3.298 1.47-5.56l.405-12.862c.288-9.828.51-21.688-.017-32.267.103.207.277.645.404 2.324-1.06-23.805 2.503-56.986-.782-65.71l-.81-15.707c-.256 20.322-1.426-3.026-1.972 5.334-.193-7.992.99-20.662 1.16-10.84l-.165 1.535c1.713 3.608.607-25.253 1.773-24.707-.083-39.99.864-78.965.938-116.422l-1.33 4.315.075-13.067c.31-3.428 1.04-4.602.986 4.72.754-4.903-.633-15.634-.922-15.898.54-18.25 1.552 7.13 1.583 1.53l-.098-7.6-.155 1.713c-.544-6.162-1.12-6.71-1.055-17.912.266-7.088.82-3.636.872-6.427.094.017.14-.926.038-4.28l.114-16.463-1.052 6.583c-.518-7.296.056-15.478-1.136-7.883.23-1.394.412-3.4.557-5.854.072-1.228.136-2.568.19-4l.075-2.215.034-1.043.03-.09c.157-.494.2-1.077.203-1.648.007-1.144-.146-2.247.14-2.51-.767-.79-.753-1.57-.66-2.534-.22.24-1.4.383-1.256-.45 2.44.305 1.06-1.523 2.814-2.196-1.163.6-.287-2.366-1.94-1.423.198-.693.914-.04 1.488-.568-.945-1.653.613-3.643.295-5.686-.32-.032-.81.31-1.286-.128l1.6-1.08c-.155-.402-1.846-.37-.734-1.107-.27.105-.676.26-.778-.01 1.56-4.002-1.277-8.18 1.653-12.244-.62.55-.68.184-.704-.237-.148.272-.79-.007-1.225.046l1.206-1.702c-1.204-.31-.08-1.824-1.232-2.002l.207.54c-1.357-.718-3.02 1-4.763.897 1.546.8-2.287 2.115-.076 3.43-.354.292-.56-.247-.965-.09.747.333.903.736.568 1.483l-.186-.084c.183 2.097-.555 2.997-1.045 5.354l.862-.175c-.115.506-.386.612-.602.85 1.307.58.073-1.423 1.515-.893-1.754.672-.026 3.572-2.02 4.026-.01.78.998-.23.986.55l-.54.207.696.197c-.116.51-.79.77-1.248.788.055-.124-.128-.353-.167-.485-.635.663.217 1.868.01 2.096l.333-.75c.505 2.127-.204 4.725.893 6.78l.408-.157c.753 1.568-.446 1.255-.1 2.978l-.096-.063c.405.345.61.805.563 1.277-.477-.435-.927.818-1.454.248.81 1.702.637.842 2.148 1.965l-.675.26c.61.382.933.414 1.106 1.274-.58-.707-1.03.548-1.795-.243-.737.903-.365 1.573-.078 2.12.144.275.266.52.218.745-.024.113-.092.223-.22.33-.032.026-.068.053-.108.08l-.063.04-.07.505c-.097.678-.212 1.35-.347 2.02.467 2.685.766 2.763.956 1.463.096-.65.165-1.644.214-2.828.012-.296.022-.604.034-.92l.01-.24.006-.02.013-.038c.015-.052.027-.105.037-.16.075-.437-.032-.918.168-.686.305-.194.654-.023.903.267.125.146.225.32.28.495.015.043.026.087.035.13.006.51.01 1.016.017 1.508.005 1.072-.004 2.092-.027 3.01-.042 7.467-2.39 12.698-2.354 31.484.007-1.87-.134-1.997-.126-3.86-.477 7.03.646 13.774-.13 22.4 1.13 4.832-.063 11.196 1.377 12.588l-.332-17.233c.376 9.77 2.063 18.93 1.245 35.023-.29-1.254-.673-6.042-.887-9.333-.425 4.707.282 9.062-.154 13.94-1.442-1.392-.313-20.943-1.413-31.41-.61 5.053 1.043 19.8-.52 14.54 1.987 7.562-.25 18.51 1.267 31.232l-.863-.84c.136 2.013.543 6.185.52 9.89l-1.12-6.71c.957 10.3-.834 19.857-.314 29.737-.026-20.685 1.04-4.643 1.67-13.39 1.157 25.514-2.258 14.673-1.844 43.235-.122-3.866.52-14.517.92-8.47-.18 5.438-.51 12.62-.963 15.957.18 18.923.888-2.907 1.42 5.148-1.054 6.444.427 9.293.765 17.59l-.88.058c-.562 21.565 1.83 5.72 1.15 25.132l-1.218-8.204.314 10.12-.998-2.088c.74 11.013.55 14.44.27 25.23.618-2.51 1.593 1.41 1.62 10.96-.52 6.515-.835-3.647-.71 9.892-.55-3.056-1.238-6.404-.43-12.296-.286-.604-.55-3.015-.833-3.637-.6 7.015-.137 17.63-.13 22.532.033-1.887.08-4.143.206-5.3l1.216 19.627c-.33 3.09-.595.64-.854-1.79.095 3.977.498 6.727.573 12.572-.714-1.513-1.45-1.15-1.786-9.425l.79 18.7c-.31 1.25-.852 9.6-1.114 7.17-.21 5.185.136 11.543.466 18.323.165 3.39.325 6.885.41 10.393.042 1.754.065 3.51.062 5.258l-.03 2.613-.014.65-.01.322-.02.162c-.02.218-.047.432-.11.637.054.187.055.463-.016.88-.058.423-.266.972-.703 1.634-.55.685-1.293 1.177-2.055 1.495-.188.092-.396.12-.586.2-.205.03-.4.09-.602.112-.205.005-.4.063-.606.04l-.305.003-.54-.012-9.444-.242c-6.39-.116-13.078-.09-20.733.4l-8.688-1.28c-11.99.29 11.76 1.61-8.205 2.094-14.137.408-5.276-1.09-10.236-1.447-7.03.645-19.25 1.957-32.237.916 4.3-.236 7.67-.046 11.687-.14zm-147.89.566c2.865-.184 8.58-.752 10.673-.234-3.263 1.006-5.79.524-10.673.234zm-171.137-52.13c.29 2.128.147 5.425-.186 9.142-.07-2.698-.04-5.753.186-9.143zM328.06 45.49c-.12.015-.206.025-.304.044-6.393-.343-4.126-.208.305-.043zm13.275.382c1.335-.123 1.242-.245.68-.367-.928.222-3.908.237-7.303.175.943.23 2.658.39 6.623.192zm122.043 83.934l-.23 2.583c-.252-5.835-.023-4.2.23-2.584z"/><path d="M53.685 428.347c-.148.812-.313 1.036-.477 1.226.147 1.127.317 1.15.477-1.226zM454.74 449.992c.025-.07.024-.146.043-.218-.035-.13-.075-.2-.12-.24l.078.458zM135.722 53.316c-2.733-.127-4.258-.287-5.27-.454-.15.216 1.093.397 5.27.454zM411.675 44.38l-8.504.228c4.115-.043 5.582.148 7.66.288-.19-.205-1.813-.5.845-.516zM441.367 49.813c.096-.107.203-.012.298-.12l-.026-.41c-.41.028-.696.357-.273.53zM419.547 47.297c.673.74 6.007.488 11.962.352h-1.054c1.755-1.036-4.592-.693-10.91-.353zM432.89 47.623l2.77-.035h1.377l.643.006.053.01c.014-.103.01-.16-.008-.186-.01-.013-.02-.018-.036-.017l-.557.02c-1.056.042-2.607.15-4.243.203zM358.17 45.382c2.825.19 1.772-.944 3.372-.644 3.153-.94-18.832 1.138-3.37.644zM424.368 49.73l-2.135-.91-3.337.734M377.342 49.06l9.518.253c-.145-.153 1.064-.243 2.55-.31-5.865-.03-12.292-.21-12.068.058zM389.408 49.002c3.055.02 5.96 0 7.658-.15-1.65.01-5.207.04-7.658.15zM411.358 50.004l-2.813-.19-6.72-.067M275.04 48.885l-10.387.26c-1.06.314 1.772.505 5.64.38 2.485-.217 6.34-.338 4.746-.64zM306.45 51.382c-2.81-.19-3-.393-4.58-.692l-.317 1.13 4.896-.438zM276.16 51.646c-1.034.313-15.074.9-1.91.83 1.054-.31 11.457-.572 1.91-.83zM119.663 50.216l2.64-.014-.38-1.853M55.53 122.93c.444-12.31-1.144-2.924-.59-14.046-.438-2.888-.452 9.09-.83 6.128.462 7.427.2 11.328 1.42 7.917zM54.11 115.01c-.073-1.19-.162-2.45-.282-3.79.116 2.152.205 3.164.282 3.79zM464.32 61.42l.385-.612-.623.395M462.944 60.246l1.182-.144-1.07-.367c.053.138.155.406-.112.51zM201.634 452.608l-.604.285c1.226.307 3.078.33 6.79.38l-6.186-.665zM308.972 453.493l-1.847-.024 3.452 1.068M399.06 452.13c-3.677-.044-7.998.195-11.692.15 8.015-.194 12.687 1.183 11.692-.15z"/></g><g><g fill="#AAB4BE"><path d="M285.322 167.11c.078-.15-.688-.097-.823-.12.147.22 1.02.126.822.12zM286.257 170.292l-.253-.192c.02-.006.455.787.436.793l-.078-.3c-.046-.152-.104-.3-.105-.3zM284.324 172.653c.526.42.72.15.857-.175.112-.362.163-.767.503-.853l.29.105-.34-.417c-.176-.2-.35-.402-.35-.402-.175.6-.356 1.704-.96 1.743zM281.705 171.004c.28.426-.01.49.287.036-.047-.035-.067-.06-.098-.087-.033.024-.087.044-.19.05zM281.895 170.953c.147-.137-.315-.31 0 0zM281.135 171.58s.035-.123.06-.26c.02-.128.044-.258.044-.258-.157-.264-.36-.247-.356-.484-.142.286-.05.568.25 1.003zM281.104 172.563l.116-.227c-.063-.112-.11-.146-.116.227zM281.425 171.852c.01.01-.194.494-.204.485.1.193.232.592.115-.175.085.377.05.003.09-.31zM281.67 171.972c.264.217.58.256.427.814.562-.463.02-1.2-.427-.814zM285.02 173.808s.547.07.543.057l-.04-.552c.024.288-.766.202-.502.495zM279.057 171.114c-.037.276.195.737.24 1.09l.43-.317c-.222-.19-.64-.363-.67-.773zM279.296 172.205l-.645.475c.577.055.682-.17.646-.475zM281.374 173.985c.03-.007.434-1.14.398-1.153.043.017-.502 1.19-.536 1.205l.138-.052zM276.596 171.08l.365-.64-.65.966M274.964 171.192c.27-.53-.37-.897-.085-1.223-.444.094-.823.55-1.164.958.362-.23.748-.17 1.248.264zM273.144 171.524c.18-.127.368-.354.572-.596-.193.122-.382.298-.572.596zM277.554 172.542c-.05-.167-.146-.604-.507-.79l.253.778c.078.005.165.01.254.012zM277.31 172.556l-.01-.025c-.274-.02-.465-.036-.547-.042.07.01.237.03.556.068zM277.618 172.546c-.023 0-.04-.002-.064-.003.024.076.04.102.064.003zM280.138 173.45c-.115.222-.288.464-.426.72-.165.25-.12.545.19.86.19-.544-.118-.905.236-1.58zM277.933 173.518l.685.178c-.014-.205-.138-.504.05-.72l-.735.542zM277.598 173.765l.335-.247-.254-.065M274.315 172.252c-.295.338-.62.367-.984.422.393.153.798.234 1.182.233.054-.244.223-.682-.197-.655zM275.77 172.468l-.065.044c.04.066.072.088.066-.044zM269.735 172.668l.058.14.014-.133"/><path d="M274.578 173.052c.294.15.47-.04.638-.28-.22.08-.454.13-.704.135-.025.11-.03.183.066.145zM272.14 171.888c.153.163.327.3.51.427-.15-.246-.456-.63-.51-.427zM275.605 172.297c.015-.013.028-.027.044-.035-.097-.166-.085-.085-.045.035zM275.605 172.297c-.15.112-.27.304-.39.474.18-.06.345-.144.488-.258-.035-.055-.07-.138-.098-.215zM268.646 177.66c.053-.72.826-1.387 1.494-.614.657-.54.228-2.91-.347-4.237-.02.313-.02.604-.696 1.03.236.394 1.5.92.93 1.573-.896.37-.734-.255-1.17-.636.37.898-1.14 1.307-.944 2.627l.786-.465c.013.205-.272.533-.054.72zM271.082 172.883l.277-.09c-.317-.124-.545-.413-.963-.977-.463.352-.56.62-.59.86l1.37.1-.095.107z"/><path d="M272.61 172.79c-.22.785-.887 1.12-.478 1.968.816-.054.572-.655 1.06-.996-1.317.194.38-.437-.573-.88.26-.134.49-.175.71-.208-.236-.096-.465-.214-.68-.36.01.02.02.033.03.05l.006-.003-.002.013c.058.098.076.157.012.1-.004.01-.02.015-.027.017-.01.11-.034.204-.06.296-.383-.162-.06-.204.06-.296.003-.04.014-.075.015-.117l-.005-.01-1.32.43c.28.11.63.087 1.25-.002zM279.234 176.725c-.04-.07-.04-.125-.043-.182-.084.095-.116.16.044.182zM278.69 176.25c.097-.108.177-.422.488-.34.27.235 0 .375.013.633.19-.208.66-.563.07-.944l-.094.105c-.53-.27-1.215-1.248-1.122-1.355.156.705.293 1.21.647 1.9zM275.612 174.72l-1.1.385.56.68-.028-.41c.626.162.49-.34.568-.654zM269.61 172.278l.146-.83-.636 1.17M268.18 172.377l.054-.72-.378.434M235.767 125.68l.405-.206c-.192.064-.315.132-.405.205zM232.835 125.63l-.072.355c.137-.196.193-.34.072-.355zM227.484 171.375c.113-.732.664-1.694.122-1.075l-.468.64c.25.055.326.21.346.435zM220.532 146.206l-.24.173.754.397c-.156-.173-.33-.368-.514-.57zM217.265 145.79l.51-.777c-.18.174-.35.424-.51.777zM251.777 124.842l.472-.804c-.74.004-.414.41-.473.804zM249.994 172.668c-.51-.31-.914-.438-1.27-.477.613.455 1.108 1.135 1.27.478zM234.614 134.058c.248-.143.354-.304.346-.48-.255.135-.4.286-.346.48zM247.253 172.194c.09.08.178.12.27.186.37-.132.746-.24 1.2-.188-.452-.338-.97-.546-1.47.002zM294.27 149.573c-.037.034-.054.074-.096.105.107.01.112-.036.095-.105zM286.3 163.068c-.048-.133-.05-.35-.06-.554-.054.1-.05.266.06.554zM261.13 172.033c.38-.052.06-.088 0 0zM262.976 175.155c-.08.088-.142.202-.15.384.03-.19.082-.312.15-.385zM243.47 177.108c-.01 0-.02 0-.032-.002.113.154.093.124.033.002zM261.7 172.392c-.143-.097-.307-.178-.485-.235.078.062.225.138.485.235zM261.623 172.018l.332.077c.05-.132.006-.215-.332-.077zM260.6 172.075c.218-.012.42.025.615.082-.075-.053-.105-.098-.086-.124-.112.01-.27.028-.53.042zM278.73 127.61c.024.024.054.04.08.073.384-.327.216-.275-.08-.074zM217.046 166.44c.008.02.03.028.038.044.01-.018.02-.04.027-.057l-.064.014zM216.458 165.077c.983.58.862.91.654 1.35l2.277-.45-2.932-.9z"/><path d="M242.786 125.452l-.958-.71c1.157-1.166 1.993-.764 1.094-1.762-.136 2.473-3.724.254-3.857 2.723l-.63-.52c.18.024.21-.12.388-.097-1.228-1.184-.913 1.788-2.495 1.435-.552-.188-.937-.547-.56-.84l-1.23.61c-.358-.048-.27-.477.085-.43l-1.874.198.013-.072c-.267.388-.873.987-1.17 1.24-.475-.353.24-.26.118-.57l-1.047.602c-.29-.306-.106-.636.16-.86.252-.225.647-.357 1.005-.312-.485-1.234-.7-1.078-1.056-.794-.207.145-.55.335-.962.405-.43.058-.967.055-1.793-.173 0 0 1.396-.545 1.406-.51-.536-.668-1.132-.786-1.812-.837-.676-.005-1.443.055-2.458-.032.284.12 1.336.38 2.037.807.708.415 1.07.948.37 1.42-.468-.072-1.11-.018-1.724.76-.158-.408-.42-.49-.766-.407-.337.102-.747.37-1.21.632l-.488-1.058c-.905.923-.506 1.364-.758 2.18-1.077.637-1.844.17-2.61-.17-.896.707-.342.69.178.763.537.083.992.233.234 1.164-1.48.934-1.88 2.32-2.04 4.35-.807.9-.587-.472-1.05-.22l.244.667.26.638c-.103.225-.348.063-.47-.02.093.926 1.072.432 1.064 1.712.59.298.023.778-.504 1.54-.243.358-.493.866-.566 1.23-.07.34.004.676.37.98-.332.298-.714-.145-1.165-.054.954 1.663.693 1.425 1.98 2.79l-.765 1.164c.874-.854 1.908.237 2.758 1.193.422-.303.792-.562.968-.736l.626 1.527c-.19.185-.59.03-1.078-.22.097.104.19.203.28.28-.43.546-1.102.263-1.752-.128.23-.187.475-.372.717-.55-.707-.378-1.49-.73-2.17-.652.133.1.25.29.314.5-.192-.1-.364-.162-.48-.116-.122.052.135.21.433.46l-1.298.348.516.084-.816 1.996c1.307 1.43 3.23 2.67 3.766 4.94-.952-.564-1.555-.122-2.682-.152 1.194-.62-.507-1.756-.265-2.932-.124.613-.66.48-.85.323l1.087 2.095c-.922-.047-.69.445-1.073.993 1.823-.414 1.214 1.563 1.772 2.415-.612.053-1.237-.15-1.09-1.192-1.372 1.15 2.142 1.484.975 2.61-.013-.253.08-.39-.23-.49.544.593.113 2.044-.42 1.703l-.012-.253c-.216 1.687-.014 5.135 1.534 5.386-.2.017-1.866-.22-2.18-.323l2.605 1.504 1.79 1.035c.246.14.45.257.592.34l.23.107c-1.333-.263-4.483.877-5.255-.624-.047.1-.097.207-.137.323-.02.057-.038.118-.052.182-.01.087-.017.18-.018.276.006.386.06.86.377 1.4.115-.42 1.85-1.035 1.985-.605-.668.668-.812.947-.943 1.23-.134.302-.195.597-.585 1.603.14-.606 2.27-.577 2.464.074-.334-.005-1.898.8-2.212.574l.417.206c.25.12.576.27.925.388.342.123.678.23.927.3.246.074.418.11.418.11-.54-.237-1.593.73-1.816 1.465.117-.202.342.217.636.715.315.482.674 1.075.96 1.214 0 0-.07-.247-.12-.5l-.088-.51c.62 1.055 1.595.992 2.485.792.9-.183 1.724-.488 2.47.06-.39.257-2.016 1.816-1.1 2.68.498-.293 1.657-1.14 2.697-2.01l1.483-1.3c.453-.418.824-.7 1.154-.866l.138.626c.02.03 1.017-.586.994-.596-.15.385-.388.88-.732 1.416-.338.5-.788 1.058-1.316 1.556-1.04.983-2.45 1.74-3.442 1.968.652.826-.05.768 1.324 1.226.332.714-1.04.537-1.487.394l.504.252c.308.142.71.364 1.14.512.43.16.86.324 1.19.422.335.09.558.148.558.148.023-.63.738-.783 1.404-1.042.334-.122.66-.24.89-.395.24-.152.29-.352.284-.604.068.005-.8.31-1.725.54-.46.094-.938.18-1.304.237l-.607.053c.08-.62.805-1.29 1.633-1.88.82-.54 1.806-1.046 2.6-.937.43.487-.32 2.178-.286 2.586.22-.422 1.6-.805 1.755-.507l-.715.655c.938.46 1.532-1.622 2.66-.454.39.078 1.163 1.576 1.23.85-.635-1.395-.76-5.713-.336-6.763.136.095 2.044 1.336 2.49 2.025.64 1.095-.964 2.61-.418 3.55.023-.335.378-.747.525-.88.41.286-.168 1.036.72.884.148-1.242 1.807.104.42-1.05.87-.353.923.255 1.944.202-.325-.8.916-2.73 1.787-3.082-.05.315.146.727.24.914 1.78.112 2.737.675 4.398.687.153.3.955.665.613 1.2.24-.22.46-.642.972-.67.992 1.07-1.142.166-.386 1.455.064-.72 1.325-.995 2.055-1.445-.224-1.113-1.685-.213-2.416.236-.003-1.535 1.27-3.144 3.005-3.854 1.38-.382.597.992.837.774 2.592.27 2.208-2.682 4.36-1.574.854.98.04 1.947.23 2.653-1.126.37-1.727-.62-2.49-.582l.94.463c-.36.325-1.11.572-1.518.288.715.88 4.377.17 6.377.98.355-.328.97-.667.68-1.06l-.634.136c-.582-.79 1.19-1.09.39-1.46.85-.554 1.8-1.426 2.995-.98l.225 1.116c-.026-.326-.78-.665-1.117-.325.498-.494 1.832 1.512 2.378.05l-.838-.773c.853-.56 1.905-1.746 2.965-1.394-.48-1.102-.243.126-.996-1.164.652 1.603-2.708-.068-1.66 1.618-.772-1.497-1.337-.635-2.346-1.91.03.367.357.703-.532.52-.04.108-.135.245-.194.325-.027-.01-.037-.016-.06-.027l.048.043c-.038.054-.04.065.02.014.21.16.383.354.452.56-.44.845-1.854.82-2.333 1.256-.528-.175.22-.422-.068-.815l-.714.654c-.07-.82-1.4-1.36-.16-1.838l-1.117-.037c-.657-.458-1.563-.64-2.122-.297-.527-.177-1.333.905-.873.265l-1.754.506-.015-.206c-1.73-.103-3.563 1.354-5.54-.122-.584.206-1.186.458-2.16.226l-.19-.707c-.748.248-2.247-.706-2.568.03-.807-1.902-3.63-.415-4.946-.752l-.05.923c-.905-.05-1.773.21-2.897.58l.07.817c-.97.67-2.492-.58-4.025-.497.104-.312.493-.23.768-.042-.23-.23-.46-.382-.695-.474-.234-.093-.28-.143-.433-.137-.257.03-.523.132-.835.306-.582.264-1.394.494-1.54-.356-.366.166-.473-.058-.514-.307.02.01.047.008.075-.004-.016-.022-.047-.042-.08-.06-.023-.164-.003-.38-.018-.548-.04.215-.062.415-.03.524-.156-.107-.46-.173-.81-.224l.494-.735c-.024-.005-.035-.018-.062-.02.04-.395-.456.15-.792.732-.222.008-.437.013-.672.07.438-.586.2-.62-.002-.738-.2-.108-.457-.24.11-.794-.352.115-.692-.122-1.062-.382-.404-.24-.823-.525-1.614-.385.187-.074.24-.203.323-.022.054-.453.105-.84-.362-1.133l.537-.17.54-.16s-.42-.133-.795-.32c-.38-.18-.77-.41-.77-.41.654-.607 1.067-.966 1.918-.248-1.32-1.683-.497-1.365-1.804-2.796l.72.07c-.028-.51-.993-1.33-.397-1.638 1.37-1.144.19-5.66 1.462-8.598-2.122.57.95-1.365-.694-1.482.5-.17.785-.58 1.22-.104-.492-1.5.797-2.252-.59-3.287.504-.17.736.32 1.033.168-.11-.12-.438-.476-.138-.632.3-.152.42.22.64.457-.084-1.53-1.63-1.686-3.082-1.797.688-.776.59-1.163-.362-1.724.475-.27.972-.722 1.143.23.07-.536.697-3.27-.467-3.325.295-.168.086-.748-.048-.89.075-1.157.156-1.432.1-2.272l-.202.237c-.69-.22-.77-.456-.643-.698.12-.248.37-.504.4-.896l.135.057c.702-.708.698-.855.65-1.084-.002-.18-.037-.46.893-.854l-.792-.378c-.767-.555-.29-.813.368-.958.66-.166 1.443-.158 1.57-.744l-.3-.064-.307-.057c-.008-.436.74-.246 1.466.165.718.37 1.424 1.006 1.627.993.147.1.016.303-.013.462 1.342.532-.468-1.065.196-1.68.362.525.446 1.51.906 1.462.177.19.31-.367.662-.85.17-.242.39-.462.62-.52.127-.035.205-.046.364-.003.177.046.345.136.5.284-.272-.476-.54-.95.08-1.307.952-.17 2.572 1.797 3.43.3.122.13.168.253.172.37.727-.385 2.362-.64 2.8-1.454.67 3.016 4.52-1.466 4.502 1.314l2.236-.15-.06.285c1.43.184 1.936-.482 2.438-1.15.33.19.09.45.062.595 2.088.56 2.296.442 4.046-.942l.182.902c.475-.524 3.02 1.415 5.067.362-.02.102-.062.277-.224.405 2.304-1.06 5.516 2.502 6.36-.783l1.522-.81c-1.967-.255.293-1.426-.516-1.97.773-.194 2 .99 1.05 1.16l-.15-.166c-.35 1.712 2.445.607 2.393 1.773 3.87-.083 7.645.865 11.27.938l-.417-1.33 1.265.076c.332.31.445 1.04-.457.986.463.757 1.542-.637 1.512-.916.638.307.448.68.232.998-.11.157-.234.294-.31.396-.127.108-.18.177-.043.185l.445-.074-.088-.16c.39-.533.52-1.096 1.257-.89.397.38.02.854.173.945-.027.09.014.136.228.118 0 0 .222.104.432.223l.408.26.06-.55.03-.57c.685-.27.937.585 1.034-.758-.047.527.184.932.408 1.326.204.33.475.646.762.936.578.573 1.097 1.202.948 1.498.94.11 1.216.725 1.303 1.45.17-.227 1.263-.706 1.313.058-1.215.148-1.398.5-1.535.878-.095.38-.218.836-1.063 1.06 1.163-.602.287 2.365 1.94 1.422-.198.694-.914.042-1.488.57.945 1.652-.613 3.642-.295 5.685.32.033.81-.31 1.286.13l-1.6 1.078c.156.403 1.847.37.735 1.108.27-.104.676-.26.778.01-1.56 4.003 1.277 8.18-1.653 12.245.62-.55.682-.183.705.238.148-.273.79.006 1.225-.047l-1.205 1.703c1.204.31.082 1.824 1.232 2.002l-.207-.54c1.358.718 3.02-1 4.764-.897-1.545-.802 2.287-2.116.076-3.432.355-.29.562.248.966.092-.748-.333-.904-.737-.57-1.484l.187.084c-.183-2.098.555-2.998 1.045-5.355l-.862.175c.115-.507.386-.613.602-.85-1.307-.582-.073 1.422-1.515.892 1.754-.672.026-3.572 2.02-4.026.01-.78-.998.23-.986-.55l.54-.207-.695-.197c.115-.51.79-.77 1.247-.788-.055.124.128.353.167.485.634-.663-.218-1.868-.01-2.096l-.334.75c-.505-2.126.204-4.724-.893-6.778l-.407.156c-.377-.785-.265-1.1-.103-1.432.146-.32.386-.877.067-1.95l.107.07c-.464-.397-.75-.915-.87-1.493.608.44.613-1.295 1.314-.71-.747-1.008-1.014-1.18-1.307-1.258-.3-.058-.655-.03-1.62-.285 0 0 .113-.15.228-.298.11-.15.217-.3.217-.3-.788-.093-1.032.013-1.756-.673.476.15.598-.115.73-.406.137-.285.282-.6.902-.407-.103-1.41-1.06-1.89-1.775-2.148-.37-.135-.668-.266-.877-.476-.215-.224-.255-.53-.26-1.203-1.128.363-.632 1-.26 1.39.4.372.894.72.554.67-.024.388-.418.502-.823.473-.424-.013-.847-.15-1.155-.48-.335-.22-.295-.932-.52-1.698-.213-.768-.705-1.653-1.907-1.99.234.07.293-.064.523.03-.366-.383-.876-.327-1.364-.327-.5.016-.993.042-1.52-.425-.377.542-.722.507-1.028.516-.327.004-.51.067-.57.79-.118-.036 2.073-.243 2.06-.187-.625.073-1.243.59-1.857.923-.534.366-1.145.583-1.924.175.12-.29.585-.672.903-.885-.457-.425-.88.28-1.35-.155.066-.72.573-.8 1.19-.835.308-.018.644-.024.966-.096.082-.02.155-.042.242-.067.106-.023.21-.05.313-.085.205-.068.402-.16.59-.29-.865-.672-2.15 1.01-1.67-.558-.73 1.986-1.79-.25-3.022 1.266l.08-.864c-.193.136-.598.543-.956.522l.65-1.12c-.998.955-1.923-.835-2.88-.315 2.003-.028.45 1.04 1.297 1.67-2.47 1.156-1.422-2.26-4.187-1.845.374-.122 1.405.52.82.92-.526-.18-1.222-.51-1.545-.963-1.832.18.28.888-.5 1.418-.622-1.052-.898.428-1.7.766l-.007-.878c-2.087-.563-.553 1.83-2.432 1.15l.794-1.22-.98.315.203-1c-1.066.74-1.398.55-2.442.27.243.62-.137 1.593-1.062 1.62-.63-.52.355-.833-.956-.708.296-.55.62-1.24 1.19-.43.06-.287.292-.55.352-.834-.68-.598-1.706-.135-2.18-.128.182.033.4.08.512.206l-1.9 1.216c-.3-.33-.062-.594.174-.854-.385.095-.65.498-1.217.573.146-.713.11-1.45.912-1.786l-1.81.792c-.122-.31-.93-.853-.695-1.116-1.004-.42-2.462 1.385-3.792.832-.07.138-.208.27-.49.373-1.25-.162-2.36-1.038-3.84-.06l-.842-1.28c-1.16.292 1.14 1.613-.794 2.095-1.368.41-.51-1.09-.99-1.447-.682.646-1.865 1.958-3.122.916.42-.247.745-.058 1.134-.152zm-15.187.927c.318-.29 1.04-.95 1.397-.485-.31 1.073-.68.608-1.398.484zm-8.756 21.933c-.29-.206-.147-.525.186-.885.072.26.04.557-.186.885zm38.122 24.434c-.012.014-.02.024-.03.043-.62-.342-.4-.208.03-.043zm1.285.38c.13-.122.12-.244.066-.366-.09.223-.378.238-.707.176.09.23.257.39.64.192zm23.437-39.314l-.093-.26c.442-.143.262.066.093.26z"/><path d="M217.643 145.846c.148-.08.313-.1.477-.12-.148-.108-.318-.11-.477.12zM251.69 124.99c.015.008.03.005.043.01.024-.052.037-.105.044-.158l-.087.148zM238.347 180.573c-.265-.127-.412-.287-.51-.454-.015.214.105.395.51.453zM265.06 171.636l-.822.228c.397-.043.54.148.74.288-.018-.205-.175-.5.083-.516zM271.27 177.07c.095-.108.202-.013.297-.122l-.026-.408c-.408.027-.694.356-.27.53zM265.822 174.553c.065.74.58.488 1.158.352-.035.002-.067.01-.103 0 .17-1.034-.443-.692-1.055-.352zM267.114 174.88c.17-.035.373-.055.52-.02.068-.413-.194-.086-.52.02zM259.88 172.64c.274.19.173-.945.327-.645.306-.94-1.823 1.138-.326.644zM266.29 176.987l-.208-.912-.323.736M261.736 176.317l.922.252c-.015-.154.103-.244.246-.312-.567-.03-1.19-.21-1.168.06zM262.904 176.26c.296.018.577-.002.74-.152-.158.01-.502.04-.74.15zM265.03 177.26l-.273-.19-.65-.067M251.833 176.142l-1.005.26c-.103.314.17.505.545.38.24-.218.614-.34.46-.64zM254.874 178.64c-.272-.19-.29-.394-.443-.693l-.03 1.13.474-.438zM251.942 178.903c-.1.313-1.46.9-.185.83.102-.312 1.11-.572.185-.83zM236.792 177.473l.256-.015-.037-1.853M220.8 178.107c1.078 1.49 1.026-.612 1.918.76.553-.13-.73-1.1-.177-1.163-1.06-.218-1.267-.84-1.74.403z"/><path d="M222.54 177.704c.17.036.354.062.56.066-.288-.07-.447-.078-.56-.066zM285.305 165.307l-.386.61.62-.394M286.68 166.48l-1.182.144 1.07.367c-.053-.137-.155-.405.112-.51zM223.773 125.2l.037.3c.308.203.558.074 1.108-.077 0 0-.285-.078-.57-.127l-.575-.095zM236.732 124.523l-.178-.024.334 1.067M245.453 123.16c-.356-.043-.774.195-1.132.15.777-.194 1.23 1.183 1.133-.15z"/></g><g fill="#AAB4BE"><path d="M285.322 368.836c.078-.152-.688-.1-.823-.12.147.22 1.02.125.822.12zM286.257 372.016l-.253-.19c.02-.008.455.785.436.792 0 0-.04-.15-.078-.302-.046-.15-.104-.3-.105-.3zM284.324 374.377c.526.42.72.15.857-.175.112-.362.163-.767.503-.853l.29.104-.34-.418c-.176-.2-.35-.402-.35-.402-.175.6-.356 1.704-.96 1.743zM281.705 372.73c.28.426-.01.49.287.035-.047-.034-.067-.06-.098-.087-.033.024-.087.043-.19.05zM281.895 372.678c.147-.137-.315-.31 0 0zM281.135 373.305s.035-.124.06-.26c.02-.13.044-.26.044-.26-.157-.263-.36-.246-.356-.482-.142.286-.05.567.25 1.002zM281.104 374.288l.116-.227c-.063-.112-.11-.146-.116.228zM281.425 373.576c.01.01-.194.493-.204.485.1.193.232.592.115-.175.085.38.05.004.09-.31zM281.67 373.696c.264.218.58.257.427.814.562-.462.02-1.198-.427-.814zM285.02 375.532s.547.07.543.057l-.04-.552c.024.287-.766.202-.502.494zM279.057 372.84c-.037.275.195.736.24 1.09l.43-.317c-.222-.19-.64-.364-.67-.774zM279.296 373.93l-.645.475c.577.055.682-.17.646-.475zM281.374 375.71c.03-.008.434-1.14.398-1.153.043.016-.502 1.19-.536 1.205l.138-.053zM276.596 372.805l.365-.64-.65.966M274.964 372.916c.27-.53-.37-.896-.085-1.223-.444.095-.823.55-1.164.96.362-.23.748-.17 1.248.263z"/><path d="M273.144 373.25c.18-.128.368-.355.572-.598-.193.122-.382.298-.572.597zM277.554 374.268c-.05-.168-.146-.605-.507-.79l.253.778.254.012z"/><path d="M277.31 374.28l-.01-.024c-.274-.02-.465-.037-.547-.043l.556.067zM277.618 374.27c-.023 0-.04 0-.064-.002.024.076.04.1.064.003zM280.138 375.176c-.115.22-.288.463-.426.72-.165.25-.12.544.19.858.19-.544-.118-.905.236-1.578zM277.933 375.243l.685.178c-.014-.205-.138-.504.05-.72l-.735.543zM277.598 375.49l.335-.247-.254-.066M274.315 373.977c-.295.338-.62.367-.984.422.393.15.798.233 1.182.232.054-.245.223-.683-.197-.655zM275.77 374.192c-.02.014-.046.03-.065.045.04.066.072.087.066-.045zM269.735 374.393l.058.142.014-.135-.072-.007zM274.578 374.776c.294.15.47-.04.638-.28-.22.078-.454.13-.704.136-.025.11-.03.183.066.144zM272.14 373.612c.153.162.327.3.51.428-.15-.246-.456-.63-.51-.428zM275.605 374.02c.015-.01.028-.025.044-.033-.097-.167-.085-.085-.045.034z"/><path d="M275.605 374.02c-.15.114-.27.306-.39.476.18-.06.345-.145.488-.26-.035-.054-.07-.137-.098-.215zM268.646 379.385c.053-.72.826-1.387 1.494-.614.657-.538.228-2.91-.347-4.235-.02.314-.02.604-.696 1.03.236.394 1.5.92.93 1.573-.896.37-.734-.255-1.17-.637.37.9-1.14 1.31-.944 2.63l.786-.466c.013.205-.272.533-.054.72zM271.082 374.607l.277-.09c-.317-.125-.545-.413-.963-.978-.463.352-.56.618-.59.858l1.37.1-.095.11zM272.61 374.515c-.22.784-.887 1.118-.478 1.967.816-.054.572-.654 1.06-.995-1.317.194.38-.437-.573-.882.26-.133.49-.174.71-.206-.236-.097-.465-.215-.68-.36l.03.05.006-.003-.002.013c.058.098.076.157.012.1-.004.01-.02.015-.027.017-.01.11-.034.204-.06.296-.383-.162-.06-.204.06-.296.003-.038.014-.075.015-.116l-.005-.01-1.32.43c.28.108.63.084 1.25-.005zM279.234 378.45c-.04-.07-.04-.126-.043-.183-.084.096-.116.162.044.182z"/><path d="M278.69 377.976c.097-.11.177-.424.488-.342.27.235 0 .376.013.634.19-.21.66-.563.07-.944l-.094.106c-.53-.27-1.215-1.247-1.122-1.355.156.705.293 1.208.647 1.9zM275.612 376.445l-1.1.385.56.68-.028-.408c.626.16.49-.343.568-.657zM269.61 374.002l.146-.828-.636 1.17M268.18 374.102l.054-.72-.378.433M280.113 194.23l.81-.06c.41-.04.82-.01.82-.01-.773-.066-1.27.03-1.63.07zM271.89 194.168l-.198.355c.375-.195.53-.34.2-.355zM225.246 301.588c.673-1.634 1.715-3.458.906-3.26l-.79.5c.142 1.142.054 2.017-.116 2.76zM220.532 218.183l-.24.478.754 1.104-.514-1.58zM217.265 217.03l.51-2.152c-.18.484-.35 1.177-.51 2.153zM294.922 237.424l.805 1.308c-.004-2.047-.41-1.146-.805-1.308zM225.46 370.845c-.006-.854.036-1.428.067-1.946-.44.87-.77 1.953-.067 1.945zM276.813 202.597c.687-.143.98-.304.96-.48-.707.135-1.106.286-.96.48zM225.51 364.998c-.08.248-.12.49-.186.744.066.516.126 1.032.163 1.577.018.27.03.552.036.842 0 .236.003.48.004.736.067-.1.146-.47.205-.802.06-.332.1-.672.112-1.017.025-.688-.06-1.392-.334-2.082zM294.27 351.298c-.037.034-.054.074-.096.104.107.01.112-.036.095-.104zM286.3 364.792c-.048-.133-.05-.35-.06-.554-.054.1-.05.267.06.554zM249.722 373.758c1.052-.053.166-.088 0 0zM254.836 376.88c-.224.09-.394.202-.42.384.087-.19.233-.31.42-.384zM220.596 354.522c0-.03 0-.056.002-.09-.154.312-.124.258-.002.09zM251.304 374.116c-.395-.097-.85-.178-1.345-.234.217.06.625.138 1.344.234zM251.09 373.743l.92.076c.133-.132.016-.215-.92-.077zM248.257 373.8c.6-.013 1.163.024 1.703.082-.207-.054-.293-.1-.238-.124-.31.01-.743.02-1.465.04zM292.155 312.058c-.025.07-.04.15-.074.225.328 1.06.275.595.075-.225zM217.046 274.216c.008.05.03.076.038.12.01-.05.02-.11.027-.155l-.064.036zM216.458 270.438c.983 1.61.862 2.523.654 3.742l2.277-1.25-2.932-2.492z"/><path d="M294.313 212.527l.71-2.652c1.167 3.202.765 5.518 1.763 3.027-.618-.094-.943-.785-1.12-1.775-.09-.495-.143-1.064-.177-1.67-.015-.308-.028-.624-.042-.945l-.102-1.504c-.218-2.015-.906-3.967-1.754-5.248-.837-1.297-1.746-1.932-2.315-1.664 0 0-.067-.145-.17-.36-.1-.222-.245-.508-.414-.782l-.462-.77c-.133-.206-.232-.335-.232-.335.518.523.684.533 1.163 1.092-1.253-2.31-2.487-2.53-3.66-2.657-.61-.062-1.253-.09-2.076-.23-.822-.145-1.815-.403-3.25-.77-.998-.287-1.877-.434-2.33-.605-.208-.08-.26-.155-.246-.234.027-.077.115-.16.517-.215.015.002-.36.02-.637.083l-1.17.21-1.7.306c-.99-.05-.75-.48.236-.432l-5.19.198.04-.073c-.74.388-2.42.987-3.238 1.242-1.318-.354.662-.262.324-.57l-2.874.6c-1.17-.64 1.21-1.263 3.196-1.17-2.684-2.47-2.385.62-8.176-.82l2.713-.314c-1.75-1.4-3.868-.892-6.936-1.767.728.457 6.142 2.204 3.022 2.82-.88-.188-2.037-.276-3.72.22-.015-.878-1.658-.662-3.714-.612l.14-1.163c-2.222.336-2.046.93-3.354 1.453-2.477-.115-2.99-1.016-3.573-1.776-3.967-.185 2.74 1.446-1.956 1.665-3.3-.446-5.616.03-9.563.727-2.31-.4.404-.712-.424-1.045l-2.047.93c-.5-.023-.34-.31-.257-.453-.217.044-.38.096-.507.153-.147.06-.292.13-.377.198-.183.14-.242.288-.34.436-.192.31-.565.526-2.2 1.038-.296.73-2.026.652-4.15 1.49-1.027.433-2.16 1.05-3.02 1.965-.87.89-1.522 2.01-1.65 3.162-.774.85-.414-.787-.958-.693-.526 1.56-.62 2.722-.696 3.603-.023.894-.008 1.525.088 2.12.07.65.204.983.37 1.542l.72 2.155-.765 3.22c.874-2.366 1.908.657 2.758 3.305.422-.84.792-1.556.968-2.038l.626 4.226c-.19.51-.59.085-1.078-.607.097.288.19.562.28.774-.43 1.512-1.102.728-1.752-.354.23-.515.475-1.026.717-1.522-.707-1.044-1.49-2.02-2.17-1.803.133.275.25.804.314 1.386-.192-.273-.364-.447-.48-.32-.122.143.135.583.433 1.275l-1.298.96.516.234-.813 5.53c1.307 3.955 3.23 7.396 3.766 13.675-.95-1.56-1.554-.335-2.68-.42 1.193-1.713-.508-4.863-.266-8.117-.125 1.698-.662 1.325-.85.893l1.086 5.804c-.922-.13-.69 1.232-1.073 2.75 1.823-1.147 1.214 4.325 1.772 6.687-.613.146-1.238-.42-1.09-3.3-1.373 3.178 2.14 4.106.974 7.227-.014-.703.08-1.083-.23-1.36.543 1.643.112 5.66-.42 4.715l-.013-.703c-.215 4.67-.013 14.217 1.535 14.914-.2.048-1.866-.61-2.18-.894l5.21 8.333c-1.33-.734-4.496 2.083-5.247-1.79-.19 1.112-.41 2.488.058 4.833.19-.76 1.923-1.892 2.044-.854-1.48 2.844-.792 1.975-2.054 5.48.285-1.136 2.37.128 2.303 1.925-.313-.28-2.06.15-2.276-.508l2.047 4.473c-.368-1.116-1.734-.197-2.312.804.4-.464-.037 3.866.166 5.06l.474-1.897c-.31 5.05 2.878 4.988 2.77 9.998-.422-.606-2.6-1.498-2.858 1.05 1.048 1.168 5.04 5.17 5.85 9.603l-.6.85.683 3.4c-1.577-2.117-4.896-8.06-6.188-11.305-.475 1.89-.706.526-.652 3.356-.562.998-.852-1.544-.885-2.376l-.363 6.59c1.225-.294 1.228 5.037 2.247 4.786l-1.27-7.156c1.223-.29 3.475 4.138 3.258 8.807-.487 1.19-2.178-.888-2.586-.79.42.605.804 4.43.506 4.86l-.655-1.98c-.46 2.598 1.622 4.24.454 7.364-.08 1.078-1.577 3.22-.852 3.405 1.396-1.76 5.714-2.104 6.764-.932-.094.378-1.335 5.66-2.024 6.892-1.095 1.775-2.61-2.665-3.55-1.153.335.064.747 1.045.88 1.454-.286 1.133-1.036-.468-.884 1.992 1.24.41-.105 5.003 1.048 1.163.354 2.405-.254 2.557-.2 5.383.8-.9 2.728 2.537 3.08 4.947-.314-.142-.726.4-.913.662-.113 4.932-.676 7.58-.688 12.18-.3.424-.664 2.644-1.198 1.698l.45 1.178.266.783.284 1.018c-.107 1.666-.383.83-.714-.186-.265-.997-.456-2.194-.953-.817.187.035.385.33.592.77.25.43.475 1.024.835 1.626.653 1.23 1.66 2.518 2.576 3.24.2-.637-.55-1.606-1.264-2.89-.746-1.257-1.405-2.882-1.634-4.06.776-.023 1.534.954 2.56 2.102 1.01 1.156 2.336 2.48 3.995 3.408.31.207.57.35.754.498.204.12.343.23.44.332.186.21.217.34.16.47-.106.246-.53.364-.225.39 1.34.75 2.503.795 3.326.635.212-.046.397-.094.583-.15.22-.064.426-.132.623-.202.393-.14.747-.288 1.09-.43 1.377-.565 2.602-1.026 5.582-.472 2.364.978.106 1.946.63 2.652-3.112.37-4.778-.62-6.888-.582l2.597.463c-.984.312-3.082.6-4.186.26 1.954.934 12.118.185 17.648 1.01.984-.33 2.682-.67 1.878-1.063l-1.752.137c-1.61-.79 3.297-1.09 1.08-1.46 2.35-.555 4.985-1.427 8.293-.98l.622 1.116c-.072-.326-2.164-.665-3.094-.325 1.38-.494 5.073 1.51 6.584.05l-2.32-.773c2.36-.56 5.277-1.745 8.21-1.394-1.335-1.102-.676.127-2.76-1.163 1.806 1.604-7.5-.067-4.6 1.618-2.138-1.496-3.7-.635-6.495-1.91.086.368.99.704-1.47.522-.112.107-.375.244-.54.324-.076-.014-.103-.018-.168-.028l.136.043c-.106.056-.116.067.05.016.587.162 1.063.355 1.255.56-1.22.847-5.136.82-6.46 1.257-1.46-.175.612-.422-.186-.814l-1.978.653c-.196-.817-3.88-1.357-.44-1.837l-3.096-.037c-1.823-.46-4.33-.64-5.878-.297-1.46-.177-3.69.904-2.417.265l-.76.08c-.227.024-.493.052-.777.08-.19.02-.328.04-.505.067-.33.023-.677.046-.932.012-.262-.006-.432-.046-.432-.046l.043-.202c-1.19-.454-2.56-1.092-3.46-2.375-.44-.628-.726-1.39-.736-2.187.007-.2.03-.4.044-.6.027-.277.073-.65.122-.976.102-.673.24-1.35.425-2.036-.206-1.613-.458-3.28-.226-5.98l.706-.524c-.247-2.07.707-6.22-.03-7.11 1.903-2.234.416-10.053.753-13.696l-.924-.137c.052-2.507-.21-4.91-.58-8.024l-.816.19c-.67-2.683.58-6.897.497-11.142.312.288.23 1.364.042 2.126 1.842-5.07-1.342-10.7 0-15.298-.296-1.146-.195-1.976.01-2.78.002.107.017.203.042.285.01-.118.012-.292.01-.47.14-.507.304-1.028.435-1.593-.198.48-.362.94-.438 1.34-.018-.885-.12-2.226-.323-3.54l.876-.56c-.01-.106-.016-.192-.025-.304.324-1.29-.415-1.036-1.074-.35-.144-.66-.317-1.267-.528-1.737 1.414-1.047-.477-3.446 1.032-4.876-.736-.886-.554-6.606-2.102-7.307.2-.045.297-.432.31.278.177-1.466.353-2.93-.082-4.243l1.113-.622-1.498-3.198c.68-1.943 1.073-2.75 1.93-.82-1.318-4.658-.496-3.78-1.803-7.74l.72.19c-.028-1.415-.993-3.68-.397-4.533 1.37-3.168.19-15.676 1.462-23.81-2.12 1.58.95-3.78-.693-4.102.5-.474.784-1.607 1.22-.29-.493-4.15.796-6.236-.59-9.1.503-.476.735.887 1.032.464-.108-.333-.437-1.318-.137-1.75.3-.422.42.608.64 1.265-.084-4.24-1.63-4.67-3.082-4.978.688-2.148.59-3.22-.362-4.772.476-.748.973-1.996 1.144.64.035-.742.208-3.005.23-5.103.01-1.048-.02-2.055-.124-2.81-.114-.82-.252-1.07-.547-1.145.26-.335.314-1.504.287-1.84.453-1.185.878-1.747 1.31-2.267.442-.507.86-1.05 1.867-1.777-.01-.022-.675.25-.675.25-.032-.858.442-1.292 1.122-1.52.683-.255 1.538-.327 2.588-.547l-.042.153c1.137.115 2.184.28 2.78.282.622.02.945-.036 1.265-.088.642-.103 1.273-.19 4.25.39l-.324-.874c.556-1.877 5.277 1.108 8.734.39l-1.248-.5c1.888-.64 5.276 2.555 7.172 2.79.414.164-.652.262-1.23.383 4.964 1.107.644-1.144 4.343-1.41.683.618-.878 1.57 1.61 1.684 1.24.5 7.22-2.002 10.617-.82-.748-.475-1.49-.95.227-1.306 2.633-.17 7.118 1.796 9.496.298.335.13.46.254.475.373.504-.097 1.164-.186 1.89-.276l.803-.105c.262.005.54-.028.81-.015 1.09.02 2.148.294 2.772.225-.103.838.286 1.45.81 2.133.528.67 1.23 1.44 1.724 2.37.233.465.435.95.555 1.427.044.244.09.462.12.704.02.295.03.573.025.83-.018 1.02-.26 1.678-.954 1.666l.15 6.19-.284-.16c-.185 3.957.48 5.355 1.15 6.747-.19.915-.45.247-.596.17-.56 5.783-.442 6.358.943 11.206l-.902.503c.525 1.314-1.413 8.36-.36 14.03-.104-.055-.278-.172-.405-.622 1.06 6.38-2.503 15.276.782 17.614l.81 4.21c.256-5.447 1.426.812 1.972-1.43.192 2.143-.99 5.54-1.16 2.906l.164-.412c-1.713-.967-.607 6.77-1.773 6.623.085 10.72-.862 21.168-.936 31.21l1.33-1.158-.075 3.503c-.31.92-1.042 1.233-.987-1.265-.755 1.313.632 4.19.92 4.262-.538 4.892-1.55-1.91-1.582-.41l.1 2.037.155-.46c.544 1.65 1.12 1.798 1.055 4.8-.266 1.9-.82.976-.872 1.724-.094-.005-.14.248-.038 1.147l-.114 4.413 1.052-1.764c.518 1.954-.056 4.147 1.136 2.11-.23.375-.412.912-.557 1.57-.072.33-.136.688-.19 1.072l-.075.594-.034.286-.03.092c-.157.493-.2 1.075-.203 1.647-.007 1.145.146 2.247-.14 2.512.767.79.753 1.567.66 2.533.22-.24 1.4-.384 1.256.448-2.437-.305-1.057 1.524-2.812 2.197 1.163-.602.287 2.365 1.94 1.422-.198.695-.914.043-1.488.57.945 1.652-.613 3.642-.295 5.686.32.03.81-.31 1.286.128l-1.6 1.078c.157.403 1.848.372.736 1.11.27-.105.676-.26.778.01-1.56 4.003 1.277 8.18-1.653 12.243.62-.55.683-.183.706.237.148-.273.79.006 1.225-.048l-1.204 1.702c1.204.31.082 1.824 1.232 2.002l-.207-.54c1.36.718 3.02-1.002 4.765-.896-1.545-.803 2.287-2.116.076-3.433.356-.29.563.25.967.093-.747-.333-.903-.736-.568-1.483l.185.085c-.183-2.1.555-2.998 1.045-5.355l-.862.175c.115-.507.386-.613.602-.85-1.307-.582-.073 1.422-1.515.892 1.754-.67.026-3.57 2.02-4.025.01-.78-.998.23-.986-.55l.538-.208-.695-.196c.115-.51.79-.77 1.247-.788-.055.124.128.353.167.485.635-.662-.217-1.868-.01-2.096l-.333.748c-.505-2.127.204-4.724-.893-6.778l-.406.156c-.753-1.57.446-1.257.1-2.98l.096.064c-.405-.345-.61-.805-.563-1.276.477.436.926-.818 1.454-.248-.808-1.7-.635-.84-2.146-1.965l.675-.258c-.61-.384-.934-.415-1.107-1.275.58.705 1.028-.55 1.794.24.737-.902.365-1.572.078-2.12-.144-.274-.266-.518-.218-.744.024-.113.092-.223.22-.33.032-.026.068-.053.108-.08l.063-.038.07-.136c.097-.183.212-.363.347-.543-.467-.72-.766-.74-.956-.392-.192.298-.276 1.288-.314 1.286-.075.437.032.92-.168.687-.305.194-.654.023-.903-.268-.125-.146-.225-.32-.28-.495-.015-.044-.026-.087-.035-.13-.006-.14-.01-.278-.017-.412-.005-.288.004-.562.027-.807.042-2.002 2.39-3.404 2.354-8.44-.008.502.133.536.125 1.035.476-1.884-.647-3.69.128-6.003-1.13-1.296.064-3-1.376-3.375l.333 4.62c-.376-2.62-2.063-5.075-1.245-9.39.29.337.673 1.62.887 2.503.425-1.262-.282-2.43.155-3.737 1.44.373.313 5.614 1.412 8.42.608-1.354-1.044-5.308.518-3.897-1.986-2.026.25-4.96-1.266-8.37l.863.224c-.137-.54-.544-1.657-.522-2.65l1.12 1.798c-.956-2.76.835-5.322.315-7.97.026 5.544-1.04 1.244-1.672 3.588-1.154-6.84 2.26-3.933 1.847-11.59.122 1.037-.52 3.893-.92 2.272.18-1.458.51-3.383.963-4.277-.18-5.072-.888.78-1.42-1.38 1.054-1.728-.427-2.49-.765-4.715l.88-.016c.562-5.78-1.83-1.533-1.15-6.737l1.218 2.2-.314-2.714.997.56c-.74-2.95-.55-3.87-.27-6.763-.618.673-1.593-.378-1.62-2.938.52-1.746.835.978.71-2.65.55.817 1.238 1.715.43 3.295.286.162.55.808.833.975.6-1.88.137-4.726.13-6.04-.033.506-.08 1.11-.206 1.42l-1.217-5.26c.33-.828.595-.17.854.48-.094-1.066-.497-1.804-.572-3.37.714.404 1.45.307 1.786 2.525l-.792-5.013c.31-.335.853-2.573 1.115-1.922.42-2.78-1.385-6.817-.83-10.5-.14-.192-.272-.577-.374-1.36.16-3.463 1.037-6.53.06-10.634l1.278-2.33c-.29-3.213-1.61 3.153-2.093-2.198-.408-3.79 1.09-1.415 1.447-2.744-.645-1.885-1.957-5.16-.916-8.642.23 1.143.04 2.047.135 3.123zm-34.51-17.97c.767-.184 2.3-.753 2.86-.235-.875 1.007-1.552.525-2.86.235zm-40.96 29.463c-.29-.57-.146-1.455.187-2.45.072.722.04 1.54-.186 2.45zm19.35 150.452c-.03.014-.054.024-.08.043-1.714-.342-1.106-.208.08-.043zm3.56.382c.357-.123.332-.245.18-.368-.247.223-1.046.237-1.956.176.253.23.713.388 1.775.192zm44.493-51.564l.23-.692c.252 1.563.023 1.126-.23.692z"/><path d="M217.643 217.187c.148-.218.313-.278.477-.33-.148-.3-.318-.307-.477.33zM294.774 237.182l-.01.12c.052.067.105.103.157.123l-.146-.243zM217.13 340.334c.128-.732.288-1.14.455-1.412-.215-.04-.396.293-.454 1.412zM260.607 373.36l-2.28.23c1.104-.044 1.497.147 2.054.287-.05-.205-.484-.502.227-.517zM271.27 378.794c.095-.107.202-.012.297-.12l-.026-.408c-.408.026-.694.355-.27.528zM262.718 376.277c.18.74 1.61.488 3.206.352-.096.002-.187.008-.282 0 .47-1.034-1.23-.692-2.924-.353zM266.294 376.604c.246-.017.495-.03.742-.035h.37l.174.006.053.01c.014-.103.01-.16-.008-.186-.02-.026-.02-.02-.193 0-.284.043-.7.152-1.138.204zM246.266 374.363c.757.19.475-.944.904-.644.845-.94-5.05 1.137-.904.643zM264.01 378.71l-.572-.91-.895.735M251.404 378.042l2.55.253c-.038-.153.286-.243.684-.312-1.57-.03-3.294-.21-3.234.06zM254.64 377.983c.818.02 1.597-.002 2.052-.15-.443.01-1.396.04-2.053.15zM260.522 378.985l-.753-.19-1.803-.067M225.017 375.854s-.14-.078-.33-.228c-.187-.15-.47-.318-.7-.547-.502-.417-.928-.922-.928-.922-.407-.058-.172.705.635 1.358.61.33 1.446.826 1.322.338zM232.4 380.363c-.75-.19-.803-.393-1.227-.692l-.085 1.13 1.313-.437zM223.576 378.226c-.233.046-1.322-.563-1.897-.944-.29-.185-.473-.274-.393-.11.08.164.415.598 1.275 1.32.244-.01 1.08.482 1.593.615.523.13.582.11-.58-.88zM220.23 336.03l.016.707 1.853-.1M215.797 299.056c-.444 3.3 1.144.783.59 3.765.438.775.452-2.437.83-1.642-.462-1.99-.2-3.037-1.42-2.122z"/><path d="M217.217 301.178c.073.32.162.657.282 1.017-.117-.578-.206-.85-.283-1.017zM285.305 367.03l-.386.613.62-.395M286.68 368.205l-1.182.144 1.07.366c-.053-.138-.155-.406.112-.51zM253.908 192.177l-.162.285c.33.307.825.33 1.82.378l-1.658-.663zM284.226 193.725l-.737-.22s.284.348.542.695c.26.346.48.724.48.724l-.13-.602c-.07-.305-.156-.597-.156-.597zM296.604 219.912c.045-.985-.194-2.144-.148-3.134.192 2.15-1.185 3.4.148 3.134z"/></g><g fill="#AAB4BE"><path d="M421.32 102.383c-.052.392.704.25.844.31-.194-.69-1.043-.282-.845-.31zM418.2 96.928l.32-.05s-.262-.1-.525-.203l-.543-.165.382.197c.187.104.365.22.365.22zM414.876 92.812c-.208.657.143.92.64 1.16.46.263 1.08.52 1.176 1.045l-.142.303.543-.147.553-.133c-.824-.936-2.394-1.45-2.77-2.228zM413.72 88.767c-.034.555-.853.05.645.51-.04-.09-.044-.128-.063-.187-.13-.06-.3-.145-.58-.323z"/><path d="M414.3 89.09c.615.312-.19-.593 0 0zM411.295 88.144c0-.02.996-.133.996-.133-.072-.347-.844-.688-.484-.792-1.012-.032-.87.324-.51.926zM410.255 88.85l.47-.076c-.04-.14-.15-.213-.47.076z"/><path d="M411.742 88.668l-.51.034-.51.072c.067.235-.05.638.456-.028-.183.346.094.038.564-.078zM412.178 89.04c.357.427.8.836-.118.927.738.213 1.153.14 1.206-.096.047-.214-.282-.632-1.088-.83zM413.836 93.71s.154.592.144.598l.6-.042c-.285.008-.505-.904-.744-.556zM406.194 86.816c-.037.276.195.737.24 1.09l.43-.317c-.22-.19-.64-.364-.67-.774zM406.434 87.907l-.645.475c.574.055.68-.17.644-.475zM409.784 90.22l.797-.31c.414-.16.836-.255.836-.254 0 0-.49.077-.97.226-.476.136-.92.287-.92.287l.258.05zM403.733 86.782l.366-.64-.652.966M402.102 86.894c.27-.53-.37-.897-.085-1.223-.443.096-.822.55-1.163.96.362-.23.748-.17 1.248.264zM400.28 87.226c.182-.127.37-.354.573-.596-.192.122-.38.298-.572.596zM404.69 88.245c-.05-.167-.145-.604-.506-.79l.253.778.254.012z"/><path d="M404.447 88.258l-.01-.025c-.274-.02-.465-.037-.547-.043.07.01.238.03.557.068zM404.756 88.248c-.023 0-.04-.002-.064-.003.024.076.038.102.064.003zM407.683 89.212c-.263.204-.673.41-.833.66-.134.26-.19.528.26.878.354-.517-.212-.922.573-1.538zM405.07 89.22l.685.178c-.014-.205-.138-.504.05-.72l-.735.542zM404.735 89.467l.335-.247-.254-.065M401.453 87.954c-.295.338-.62.367-.984.422.39.153.796.234 1.18.233.054-.245.223-.683-.197-.656zM402.908 88.17l-.066.044c.04.066.073.088.066-.044zM396.873 88.37l.058.14c.006-.044.01-.08.015-.133l-.072-.007zM401.716 88.754c.294.15.47-.04.638-.28-.22.08-.454.13-.704.135-.025.11-.03.182.066.144zM399.277 87.59c.153.163.327.3.51.427-.15-.246-.455-.63-.51-.427zM402.743 88c.015-.013.028-.027.044-.035-.097-.167-.084-.086-.044.035zM402.743 88c-.15.112-.27.304-.39.474.18-.06.345-.145.488-.26-.034-.055-.07-.138-.097-.214zM395.783 93.362c.053-.72.826-1.387 1.494-.614.657-.54.228-2.91-.347-4.237-.02.315-.02.606-.696 1.032.236.394 1.5.92.93 1.573-.896.37-.734-.255-1.17-.636.37.897-1.14 1.306-.944 2.626l.786-.465c.015.207-.27.535-.053.722z"/><path d="M398.22 88.585l.278-.09c-.317-.124-.545-.413-.963-.977-.463.352-.56.62-.59.86l1.37.1-.095.107z"/><path d="M399.747 88.493c-.218.784-.886 1.118-.477 1.967.816-.054.572-.655 1.06-.996-1.317.194.38-.437-.573-.88.26-.134.492-.175.712-.208-.238-.096-.467-.214-.683-.36l.03.05.007-.003-.002.012c.058.098.076.157.012.1-.004.01-.02.015-.027.017-.01.11-.033.204-.06.296-.382-.162-.06-.204.06-.296.004-.04.015-.075.016-.117l-.005-.01-1.32.43c.28.11.63.088 1.25-.002zM406.372 92.427c-.04-.07-.04-.125-.043-.182-.086.095-.118.16.042.182z"/><path d="M405.83 91.953c.095-.11.175-.423.486-.342.27.237 0 .377.013.635.187-.208.657-.563.067-.944l-.093.107c-.53-.27-1.215-1.248-1.122-1.355.156.705.293 1.21.647 1.9zM402.75 90.423l-1.1.384.56.68-.028-.41c.626.162.49-.34.568-.654zM396.747 87.98l.146-.83-.635 1.17M395.318 88.08l.054-.722-.378.435M284.883 411.694l3.26-.205c-1.543.064-2.534.132-3.26.204zM261.29 411.646l-.577.354c1.094-.195 1.542-.34.578-.354zM89.042 143.71c-.673 4.746-1.715 10.05-.906 9.475l.79-1.457c-.14-3.316-.053-5.858.116-8.02zM93.757 386.112c.08-.453.16-.924.24-1.39l-.754-3.205.514 4.595zM97.024 389.46l-.51 6.258c.18-1.407.35-3.42.51-6.258zM409.942 409.764s.23-.462.354-.913c.116-.466.13-.895.13-.895-.295.527-.563.823-.713 1.026-.153.202-.188.327-.174.397.036.157.368.173.402.387zM253.206 88.37c-4.097-.31-7.356-.438-10.22-.477 4.935.454 8.916 1.134 10.22.477zM275.6 420.073c1.994-.143 2.847-.304 2.788-.48-2.053.136-3.214.286-2.788.48zM231.157 87.896c.722.08 1.43.12 2.165.186 2.994-.132 6.006-.24 9.664-.188-3.644-.338-7.818-.546-11.83.002zM412.395 120.11c.036-.033.053-.073.095-.104-.108-.01-.113.037-.095.105zM420.362 106.617c.05.133.05.35.06.554.056-.1.05-.266-.06-.553zM342.82 87.735c3.058-.052.486-.088 0 0zM357.686 90.857c-.65.088-1.144.202-1.22.384.25-.19.677-.31 1.22-.383zM200.71 92.81h-.263c.91.152.753.123.264 0zM347.42 88.094c-1.147-.097-2.47-.178-3.908-.235.632.06 1.82.137 3.908.234zM346.802 87.72l2.672.077c.384-.132.045-.214-2.672-.077z"/><path d="M338.563 87.777c1.748-.012 3.38.025 4.95.082-.602-.054-.853-.1-.69-.125-.898.01-2.163.02-4.26.042zM414.508 197.972l.074-.655c-.327-3.084-.274-1.73-.074.655zM97.242 223.26l-.038-.35c-.01.144-.02.324-.027.454l.065-.103zM97.83 234.24c-.982-4.676-.86-7.334-.653-10.876l-2.277 3.63 2.93 7.245z"/><path d="M341.372 411.467l-7.71-.71c9.306-1.167 16.038-.765 8.8-1.763-1.09 2.473-29.967.254-31.038 2.723l-5.083-.52c1.458.024 1.69-.12 3.13-.097-9.884-1.184-7.343 1.787-20.077 1.436-4.438-.19-7.535-.55-4.51-.842l-9.89.61c-2.877-.048-2.173-.477.69-.43l-15.083.197.112-.07c-2.15.387-7.028.986-9.41 1.24-3.832-.353 1.924-.26.942-.57l-8.35.6c-3.403-.64 3.518-1.262 9.287-1.17-7.798-2.468-6.93.622-23.76-.82l7.884-.313c-5.083-1.4-11.238-.894-20.154-1.77 2.116.458 17.85 2.205 8.786 2.82-2.555-.187-5.92-.275-10.812.223-.045-.88-4.82-.663-10.794-.613l.408-1.164c-6.46.335-5.948.928-9.75 1.452-7.2-.114-8.69-1.017-10.386-1.776-11.53-.186 7.96 1.445-5.684 1.665-9.588-.445-16.32.03-27.792.727-6.71-.4 1.174-.712-1.233-1.045l-5.948.93c-1.457-.023-.986-.31-.75-.453-5.01.36-.412 1.164-8.292 1.48-2.125 1.282-16.177-1.874-25.93-.418-2.404-.33 1.16-.713.425-1.164-1.673.117-3.106.22-4.356.307-.588.037-1.133.073-1.64.106l-.496.03c-.16-.008-.313-.016-.46-.022-1.198-.083-2.05-.453-2.812-.86-.756-.43-1.443-.945-2.17-1.813-.368-.433-.724-.972-1.034-1.67-.17-.348-.286-.743-.42-1.18l-.142-.7-.12-.98.765-9.36c-.874 6.876-1.908-1.91-2.758-9.605-.422 2.438-.792 4.522-.968 5.92l-.625-12.28c.19-1.484.59-.247 1.078 1.766l-.28-2.25c.43-4.393 1.102-2.115 1.752 1.03l-.717 4.426c.707 3.034 1.49 5.872 2.17 5.24-.133-.8-.25-2.336-.314-4.025.194.794.365 1.3.48.933.123-.417-.134-1.698-.432-3.707l1.298-2.792-.516-.677.813-16.07c-1.307-11.498-3.23-21.498-3.765-39.747.952 4.527 1.554.973 2.682 1.22-1.194 4.98.507 14.133.265 23.592.125-4.936.662-3.85.85-2.596l-1.086-16.868c.92.38.69-3.58 1.072-7.987-1.823 3.33-1.214-12.573-1.772-19.436.612-.426 1.237 1.22 1.09 9.593 1.372-9.238-2.142-11.938-.975-21.006.014 2.046-.08 3.148.23 3.955-.543-4.774-.112-16.45.42-13.703l.013 2.04c.216-13.573.014-41.32-1.534-43.347.2-.135 1.866 1.78 2.18 2.6l-5.21-24.22c1.33 2.134 4.496-6.055 5.247 5.2.19-3.23.41-7.23-.057-14.043-.19 2.206-1.923 5.496-2.044 2.483 1.48-8.27.79-5.742 2.053-15.936-.285 3.303-2.37-.37-2.303-5.59.312.815 2.058-.436 2.275 1.474l-2.047-13c.37 3.245 1.735.574 2.313-2.335-.4 1.348.038-11.24-.165-14.704l-.474 5.51c.31-14.677-2.877-14.498-2.77-29.057.423 1.76 2.602 4.352 2.86-3.054-1.05-3.393-5.042-15.025-5.85-27.908l.6-2.47-.108-1.544c-.055-1.097.03-2.637.466-4.102.418-1.47 1.147-2.854 1.837-3.79.34-.47.662-.837.88-1.1l.374-.385c-1.18 1.565-2.467 4.188-2.477 7.223-.002.748.083 1.53.218 2.262.143.704.29 1.427.438 2.166l.89 4.585c1.19 6.266 2.342 12.942 2.988 17.657.475-5.49.706-1.528.652-9.754.562-2.905.852 4.482.885 6.903l.363-19.15c-.306.213-.536-.596-.725-1.917l-.115-.882c-.044-.212-.06-.44-.052-.677-.01-.48.074-.998.24-1.505.304-1.034.99-1.963 1.57-2.58.575-.625 1.022-.997.802-1.183 0 0-.048.03-.137.082-.088.055-.225.12-.375.247-.31.23-.758.558-1.18 1.063-.874.97-1.64 2.58-1.608 4.202l.604 10.036c-.612.42-1.48-2.585-2.17-7.394-.078-.602-.162-1.23-.248-1.884-.067-.59-.114-1.095-.078-1.688.06-1.154.435-2.393 1.148-3.522 1.39-2.298 4.23-3.98 7.355-3.775 1.726.244 1.08.788.04 1.323-.6.26-.932.56-1.245.802-.287.276-.45.48-.387.574.127-.06.34-.177.64-.24l.504-.102.923-.07c1.31-.09 2.903-.168 4.48-.224 3.155-.11 6.246-.132 6.87.017l-5.756.655c7.553.46 12.327-1.622 21.404-.454 3.134.078 9.356 1.576 9.898.85-5.11-1.395-6.11-5.713-2.703-6.763 1.098.095 16.45 1.336 20.028 2.025 5.16 1.095-7.746 2.61-3.353 3.55.188-.335 3.04-.747 4.227-.88 3.29.286-1.363 1.036 5.787.884 1.192-1.242 14.542.104 3.38-1.05 6.993-.353 7.432.255 15.644.202-2.613-.8 7.374-2.73 14.38-3.082-.413.315 1.16.727 1.923.914 14.336.112 22.033.675 35.4.687 1.232.3 7.683.665 4.935 1.2 1.923-.22 3.69-.642 7.813-.67 7.98 1.07-9.193.166-3.11 1.455.52-.72 10.663-.995 16.535-1.445-1.807-1.113-13.568-.213-19.45.236-.027-1.535 10.21-3.144 24.183-3.854 11.104-.382 4.814.992 6.742.774 20.857.27 17.77-2.682 35.09-1.574 6.87.98.31 1.947 1.833 2.653-9.045.37-13.887-.62-20.02-.582l7.55.463c-2.878.325-8.916.572-12.206.288 5.76.88 35.237.17 51.33.98 2.86-.328 7.795-.667 5.46-1.06l-5.093.136c-4.68-.79 9.585-1.09 3.14-1.46 6.83-.554 14.486-1.426 24.102-.98l1.807 1.116c-.207-.326-6.285-.665-8.988-.325 4.007-.494 14.743 1.512 19.136.05l-6.742-.773c6.858-.56 15.335-1.746 23.856-1.394-3.877-1.102-1.963.126-8.02-1.164 5.25 1.603-21.798-.068-13.366 1.618-6.213-1.497-10.754-.635-18.876-1.91.25.367 2.877.703-4.276.52-.323.108-1.085.245-1.57.325l-.483-.027.396.043c-.31.054-.336.065.148.014 1.703.16 3.084.354 3.645.56-3.552.845-14.93.82-18.774 1.256-4.245-.175 1.775-.422-.542-.815l-5.747.654c-.57-.82-11.278-1.36-1.277-1.838l-9-.037c-5.3-.458-12.588-.64-17.084-.297-4.245-.177-10.723.905-7.024.265l-14.115.506-.13-.206c-13.928-.103-28.67 1.354-44.592-.122-4.69.206-9.535.458-17.38.226l-1.528-.707c-6.02.248-18.078-.706-20.665.03-6.495-1.902-29.217-.415-39.805-.752l-.4.923c-7.288-.05-14.276.21-23.322.58l.556.817c-3.9.335-8.91.19-14.49-.028-2.79-.107-5.723-.22-8.728-.333-.75-.02-1.507-.043-2.267-.064l-1.142-.026-.573-.01-.8.024c-2.133.096-4.288.698-6.142 1.8.42-.43 1.663-1.15 3.27-1.573.8-.225 1.688-.35 2.56-.393.414-.008.925-.02 1.24 0 .298.02.59.043.866.064l-.692-.083c-.123-.012-.214-.028-.364-.037l-.493-.016c-.66-.034-1.325.004-1.993.083-1.327.172-2.665.518-3.9 1.105-2.49 1.13-4.65 3.053-6.07 5.45-.723 1.187-1.265 2.498-1.585 3.86-.185.676-.267 1.373-.35 2.065-.035.346-.035.695-.046 1.042l-.008.52.012.373.268 5.725c.397 7.603.858 15.033.187 21.717.296 3.33.195 5.742-.01 8.078-.002-.31-.017-.587-.042-.825l-.01 1.367c-.14 1.47-.304 2.985-.435 4.626.198-1.394.362-2.73.438-3.89.018 2.568.12 6.463.323 10.282l-.876 1.627c.01.31.016.56.025.883-.324 3.748.415 3.012 1.074 1.013.144 1.923.317 3.685.528 5.052-1.414 3.043.477 10.02-1.032 14.174.736 2.572.554 19.198 2.102 21.232-.2.13-.297 1.255-.31-.807-.177 4.258-.353 8.512.082 12.332l-1.113 1.807 1.498 9.296c-.68 5.648-1.073 7.988-1.93 2.38 1.318 13.542.496 10.987 1.803 22.502l-.72-.56c.028 4.114.993 10.694.397 13.178-1.37 9.207-.19 45.56-1.462 69.197 2.12-4.586-.95 10.986.693 11.924-.5 1.377-.784 4.672-1.22.844.493 12.063-.796 18.122.59 26.45-.503 1.382-.735-2.58-1.032-1.353.108.97.437 3.833.137 5.088-.3 1.23-.42-1.766-.64-3.675.084 12.322 1.63 13.568 3.082 14.465-.688 6.244-.59 9.36.362 13.87-.476 2.173-.973 5.8-1.144-1.857-.035 2.155-.208 8.733-.23 14.828v1.698c0 .18-.002.362.013.626.03.965.153 1.91.386 2.788.448 1.768 1.256 3.27 2.116 4.396 1.758 2.27 3.56 3.044 3.794 2.887.603.593 2.295 1.54 4.134 1.89.455.09.917.134 1.355.188.44.02.865.022 1.25.022.642-.03 1.13-.07 1.418-.103 9.665.068 10.516.173 20.006.062l-2.632-.19c3.747-1.402 7.89-.313 15.54-.48l-.22.144c17.545 1.012 7.577-.485 24.883.67l-.94-.873c1.613-1.877 15.334 1.107 25.38.39l-3.626-.5c5.487-.642 15.335 2.555 20.844 2.79 1.202.162-1.896.26-3.572.382 14.425 1.107 1.87-1.144 12.618-1.41 1.98.617-2.555 1.57 4.68 1.684 3.604.5 20.983-2.003 30.854-.82-2.174-.476-4.334-.95.66-1.307 7.65-.17 20.686 1.797 27.598.298.973.13 1.34.256 1.38.374 5.85-.387 19.012-.643 22.535-1.455 5.406 3.015 36.367-1.467 36.237 1.313l17.993-.148-.47.283c11.5.185 15.566-.48 19.61-1.15 2.658.19.717.45.497.596 8.402.28 13.02.39 17.302.258 2.14-.066 4.193-.193 6.595-.39l3.913-.35 2.252-.217 1.218-.118c.424-.044.81-.072 1.38-.15 0 0 .45.22.935.38.48.158.996.302.996.302 1.158-.373 3.783-.984 6.426-3.348 1.306-1.165 2.573-2.774 3.4-4.828.437-1.015.708-2.148.878-3.332.13-1.324.125-2.106.17-3.09.288-7.658.51-16.897-.017-25.14.103.162.277.503.404 1.812-1.058-18.544 2.504-44.395-.78-51.19l-.81-12.237c-.257 15.832-1.427-2.357-1.973 4.155-.193-6.227.99-16.097 1.16-8.445l-.165 1.197c1.713 2.81.607-19.674 1.773-19.248-.084-31.154.863-61.52.937-90.7l-1.33 3.362.075-10.18c.31-2.67 1.04-3.586.986 3.676.755-3.82-.632-12.18-.92-12.385.538-14.22 1.55 5.553 1.582 1.19l-.1-5.92-.154 1.336c-.543-4.8-1.12-5.227-1.054-13.955.266-5.52.82-2.832.872-5.006.094.014.14-.722.038-3.335l.114-12.826-1.052 5.128c-.518-5.684.056-12.058-1.136-6.14.23-1.087.412-2.65.557-4.56.07-.958.135-2 .19-3.117.023-.558.05-1.134.074-1.726l.034-.816.03-.09c.157-.494.2-1.077.203-1.648.008-1.144-.145-2.247.14-2.51-.766-.79-.752-1.57-.66-2.534-.22.24-1.4.383-1.255-.45 2.438.305 1.06-1.523 2.813-2.196-1.163.6-.287-2.366-1.94-1.423.198-.694.914-.042 1.488-.57-.945-1.652.613-3.642.295-5.685-.32-.032-.81.31-1.285-.128l1.6-1.08c-.156-.402-1.847-.37-.735-1.107-.27.104-.676.26-.778-.01 1.56-4.003-1.277-8.18 1.653-12.245-.62.55-.682.184-.705-.237-.148.274-.79-.005-1.225.048l1.205-1.702c-1.204-.31-.08-1.824-1.232-2.002l.207.54c-1.358-.718-3.02 1-4.764.897 1.547.803-2.286 2.117-.075 3.433-.355.29-.562-.248-.966-.092.746.334.902.738.567 1.485l-.186-.084c.184 2.1-.554 3-1.044 5.356l.862-.175c-.115.508-.386.614-.602.852 1.307.58.073-1.423 1.515-.893-1.753.67-.025 3.57-2.02 4.025-.01.78 1-.23.987.55l-.54.207.696.197c-.115.51-.79.768-1.247.787.055-.124-.128-.353-.167-.485-.636.663.216 1.868.01 2.096l.332-.75c.505 2.127-.204 4.725.893 6.78l.407-.157c.753 1.57-.446 1.257-.1 2.98l-.096-.063c.405.345.61.805.563 1.277-.478-.435-.928.818-1.455.248.81 1.702.636.842 2.147 1.965l-.675.26c.61.382.933.414 1.106 1.274-.58-.705-1.028.55-1.794-.24-.738.902-.366 1.572-.08 2.12.145.274.267.518.22.744-.025.113-.093.223-.22.33-.033.026-.07.053-.11.08l-.062.04-.07.393c-.097.528-.212 1.052-.347 1.574.468 2.092.767 2.153.957 1.14.096-.505.165-1.28.214-2.203.013-.23.023-.47.035-.718l.008-.187.007-.02.013-.037c.016-.052.028-.105.038-.16.076-.437-.03-.918.17-.686.304-.194.653-.023.902.267.125.146.225.32.28.495.015.043.026.087.035.13.006.4.01.793.017 1.177.005.834-.004 1.628-.027 2.343-.042 5.818-2.39 9.893-2.354 24.53.008-1.458-.133-1.557-.125-3.01-.477 5.48.646 10.732-.13 17.45 1.13 3.767-.063 8.724 1.377 9.81l-.333-13.426c.376 7.61 2.063 14.748 1.245 27.285-.29-.977-.673-4.707-.887-7.27-.425 3.666.282 7.06-.154 10.86-1.442-1.085-.313-16.317-1.413-24.47-.608 3.936 1.044 15.424-.518 11.327 1.986 5.89-.25 14.42 1.266 24.33l-.862-.654c.136 1.57.543 4.82.52 7.706l-1.12-5.227c.957 8.023-.834 15.47-.314 23.166-.026-16.114 1.04-3.616 1.67-10.43 1.157 19.875-2.258 11.43-1.844 33.682-.122-3.013.52-11.31.92-6.6-.18 4.237-.51 9.83-.963 12.43.18 14.744.888-2.263 1.42 4.014-1.054 5.02.427 7.24.765 13.703l-.872.044c-.563 16.8 1.83 4.456 1.15 19.58l-1.22-6.392.315 7.885-.998-1.628c.74 8.58.55 11.25.27 19.655.618-1.954 1.593 1.1 1.62 8.54-.52 5.073-.835-2.843-.71 7.705-.55-2.38-1.238-4.99-.43-9.58-.286-.47-.55-2.35-.833-2.832-.6 5.464-.137 13.734-.13 17.554.033-1.47.08-3.228.206-4.13l1.217 15.29c-.33 2.408-.595.498-.854-1.394.095 3.098.498 5.24.573 9.795-.714-1.18-1.45-.896-1.786-7.343l.792 14.568c-.31.973-.853 7.477-1.115 5.585-.21 4.04.136 8.992.466 14.274l.235 4.015.098 2.036.04 1 .006.516c-.045 1.362-.838 2.73-2.016 3.436-.065.148-.2.325-.456.545-.256.215-.632.48-1.208.672-.73.15-1.047.14-2.536.093l-3.67-.126-7.355-.242c-4.978-.117-10.188-.09-16.152.398l-6.77-1.28c-9.34.29 9.163 1.612-6.39 2.095-11.015.408-4.112-1.09-7.976-1.447-5.478.645-15 1.957-25.116.916 3.35-.242 5.977-.052 9.106-.147zm-115.215.566c2.232-.184 6.683-.752 8.315-.234-2.54 1.005-4.51.523-8.315.233zM95.444 369.15c.29 1.658.147 4.227-.186 7.122-.07-2.102-.04-4.482.186-7.122zm213.874-280.7c-.094.013-.16.023-.237.042-4.98-.342-3.213-.208.238-.043zm10.342.38c1.04-.122.968-.244.528-.366-.722.222-3.043.237-5.688.175.735.228 2.07.387 5.16.19zm100.757 76.495l-.23 2.013c-.25-4.546-.023-3.273.23-2.013z"/><path d="M96.646 389.008c-.148.632-.313.807-.477.955.146.878.317.896.476-.955zM409.75 410.09l.147-.1c.046-.1.055-.17.045-.227l-.19.326zM159.476 96.275c-2.13-.127-3.317-.287-4.106-.454-.117.217.852.397 4.106.455zM374.46 87.338l-6.626.228c3.205-.043 4.348.148 5.966.288-.148-.205-1.412-.5.66-.516zM398.406 92.77c.096-.106.203-.01.298-.12l-.026-.408c-.408.028-.695.356-.272.53zM380.59 90.255c.525.74 4.68.488 9.32.352-.277.002-.542.01-.82 0 1.367-1.034-3.577-.692-8.5-.352zM390.986 90.582l2.156-.035h1.074l.5.006.054.01c.014-.103.01-.16-.008-.186-.01-.013-.02-.018-.036-.017-.123.005-.27.01-.436.02-.82.04-2.028.15-3.304.202zM332.775 88.34c2.2.19 1.38-.943 2.627-.643 2.457-.94-14.67 1.138-2.627.644zM384.348 92.69l-1.663-.913-2.6.736M347.712 92.02l7.414.252c-.112-.153.83-.243 1.985-.31-4.566-.03-9.573-.212-9.398.058zM357.11 91.96c2.382.02 4.646 0 5.968-.15-1.287.01-4.057.04-5.967.15zM374.213 92.962l-2.192-.19-5.235-.066M268.012 91.844l-8.09.26c-.825.314 1.38.505 4.392.38 1.936-.218 4.94-.338 3.698-.64zM292.482 94.34c-2.188-.188-2.336-.392-3.568-.69l-.246 1.13 3.814-.44zM268.886 94.605c-.807.313-11.744.9-1.488.83.82-.312 8.924-.572 1.488-.83zM146.965 93.175l2.058-.015-.296-1.853M98.492 151.07c.444-9.588-1.144-2.277-.59-10.942-.438-2.25-.452 7.083-.83 4.774.462 5.786.2 8.826 1.42 6.168zM97.072 144.902c-.073-.928-.162-1.91-.282-2.954.116 1.676.205 2.465.282 2.954zM421.358 104.378l.386-.61-.623.393M419.983 103.204l1.182-.144-1.07-.367c.053.14.155.407-.112.51zM209.03 409.653l-.472.285c.955.307 2.398.33 5.29.38l-4.82-.665zM292.65 410.538l-1.438-.024 2.69 1.07M362.834 409.176c-2.864-.045-6.23.194-9.108.148 6.244-.193 9.883 1.184 9.108-.148z"/></g></g></svg>
