<svg height="512" viewBox="0 0 512 512" width="512" xmlns="http://www.w3.org/2000/svg"><path d="M408.033 357.354c-.32 0-.624-.036-.94-.115-1-.23-1.867-.868-2.383-1.754-.824-1.42-.552-3.227.655-4.354l11.298-10.54c-.134-1.34.516-2.698 1.76-3.414.254-.146.52-.26.793-.34.776-.406 2.796-1.637 4.428-2.668 1.54-.977 3.57-.624 4.688.825.594.776.83 1.73.703 2.638.334 0 .637.036.965.104 1.006.242 1.88.885 2.39 1.77.976 1.693.4 3.852-1.292 4.828-.57.327-1.195.455-1.79.473-1.716.837-6.046 3.742-9.005 5.725-7.885 5.3-10.34 6.82-12.27 6.82zM412.327 252.577c-.382 0-.65-.06-.897-.115-1.067-.243-1.953-.89-2.486-1.82-.813-1.397-.564-3.17.594-4.296.328-.32.65-.64.982-.958-5.045 2.623-6.13 2.365-6.968 2.168-1.03-.242-1.886-.873-2.407-1.777-.977-1.693-.4-3.85 1.29-4.825.656-.376 1.384-.524 2.075-.458 3.263-1.26 15.537-8.836 25.695-15.57.813-.537 1.813-.716 2.76-.49.95.22 1.764.827 2.255 1.673.904 1.58 1.4 2.426-2.51 6.904.51-.346 1.013-.688 1.503-1.03.813-.56 1.82-.75 2.784-.532.958.218 1.79.828 2.274 1.68.8 1.383.686 2.55-.497 6.173.946.258 1.76.876 2.244 1.725.977 1.692.4 3.85-1.292 4.828-.46.264-.964.416-1.46.458-.692.425-1.814 1.237-2.294 1.583-1.205.878-2.157 1.576-3.734 1.242-.977-.206-1.83-.815-2.335-1.683-.672-1.168-.69-1.833.037-4.095-12.297 8.032-15.966 9.212-17.61 9.212z" fill="#AAB4BE"/><path d="M374.534 317.905c-.285 0-.57-.042-.886-.108-.97-.213-1.838-.844-2.335-1.705-.746-1.285-.885-2.286-.012-3.796-.963.194-1.473.08-1.873 0-1.128-.242-2.068-.916-2.638-1.898-.862-1.49-.517-3.396.812-4.493l8.623-7.077c-.048-.073-.085-.14-.133-.22-.534-.927-.606-2.02-.25-2.977-5.918 3.403-7.847 3.846-9.478 3.446-1.037-.243-1.898-.88-2.42-1.79-1.007-1.746-2.347-4.062 7.27-12.613-.126-.158-.248-.34-.356-.52-.82-1.408-.564-3.19.605-4.313 1.044-1.014 2.16-2.087 3.306-3.196-.286-.006-.56-.042-.844-.12-.904-.237-1.68-.832-2.147-1.645-1.184-2.057-.91-3.53 3.184-7.43-.194-.2-.37-.43-.51-.68-1.522-2.638.63-4.542 2.353-6.08.298-.257.625-.542.995-.86-25.1 14.685-25.792 14.515-27.508 14.06-.916-.23-1.73-.854-2.208-1.667-.4-.69-.57-1.486-.49-2.274-.82-.31-1.492-.886-1.936-1.64-.818-1.424-.976-2.8.115-4.577-.012.006-.036.024-.06.03-2.27 1.298-4.464 2.57-6.15 3.548-1.152.723-2.286 1.42-3.39 2.11-.818.51-1.8.668-2.735.426-.867-.213-1.613-.752-2.098-1.498-7.496 3.784-12.59 5.45-15.325 4.81-1.395-.328-2.522-1.147-3.202-2.312-.97-1.686-.388-3.845 1.305-4.82 1.26-.73 2.783-.595 3.88.23 8.716-.607 54.865-31.44 72.446-43.185 18.21-12.158 18.192-12.152 20.17-11.688.952.22 1.795.846 2.273 1.692.31.52.612 1.268.654 2.205 6.968-3.516 8.054-3.25 9.108-2.985 1.007.255 1.844.88 2.354 1.762.897 1.556.728 2.978-.334 4.48.68-.114 1.195-.07 1.68.05 1.014.254 1.862.882 2.37 1.768.596 1.028.735 2.26.4 3.463-.52 1.935-2.57 4.18-6.846 7.32.09 1.143-.382 2.304-1.34 3.063-6.46 5.08-14.736 11.638-22.14 17.575.18.206.344.428.483.667.866 1.513.51 3.445-.868 4.533-.643.507-1.28 1.02-1.935 1.54.546.3 1.02.746 1.347 1.325.782 1.347 1.2 2.063-1.056 4.81 3.232-1.91 4.258-2.063 5.556-1.753.946.225 1.855.892 2.347 1.73.923 1.605.456 3.644-1.066 4.692-2.626 1.782-5.313 3.65-7.956 5.542 5.476-3.47 5.785-3.39 7.23-3.038.938.225 1.77.85 2.25 1.68 1.418 2.47.872 3.888-6.685 10.904.176.15.346.327.49.527 1.136 1.51.887 3.656-.574 4.852l-5.192 4.263c.236.225.437.485.606.77 1.158 2.01.915 3.143-2.493 6.77.9.314 1.64.92 2.124 1.746.97 1.69.395 3.85-1.298 4.827-.733.425-1.553.552-2.34.425-1.905.885-6.338 4.002-8.582 5.59-3.994 2.818-5.28 3.727-6.65 3.727zM198.555 324.716c-.288 0-.576-.036-.86-.104-.93-.23-1.72-.83-2.196-1.66-1.717-2.973 1.05-4.974 3.074-6.423 1.007-.735 2.377-1.67 4.084-2.815-1.143-.648-1.834-1.504-2.247-2.207-.748-1.304-.578-2.887.316-3.99-.977.078-1.8.036-2.496-.128-1.892-.46-2.884-1.576-3.378-2.438-.958-1.662-.415-3.784 1.222-4.785.512-.315 1.03-.63 1.562-.952-1.34-.388-2.323-1.52-2.517-2.904-.195-1.406.472-2.8 1.697-3.522 2.944-1.753 5.958-3.548 9.024-5.367-.047-.018-.096-.023-.142-.035-1.07-.273-1.95-.928-2.48-1.844-.477-.824-.6-1.812-.343-2.728.28-.976.385-1.364 4.245-3.596-1.268.06-2.547-.576-3.232-1.765-.458-.78-.897-2.085-.418-3.82.336-1.212.855-3.08 6.27-7.81-.345-.273-.64-.607-.86-1-.212-.365-.358-.766-.44-1.172-9.27 5.53-15.003 8.92-15.16 9.012-1.647.97-3.77.455-4.79-1.158-.175-.285-.312-.588-.4-.892-9.887 4.08-12.498 3.475-14.014 3.13-2.025-.468-3.072-1.644-3.59-2.548-.573-.988-1.125-2.48-.964-4.438-.92-.315-1.67-.93-2.147-1.753-.482-.83-.63-1.794-.442-2.752-3.072 1.94-6.083 3.84-9.015 5.7-1.643 1.043-3.83.552-4.87-1.092-1.046-1.655-.558-3.832 1.092-4.882.476-.303 48.52-30.74 97.46-60.416 100.168-60.753 106.384-59.25 109.362-58.518 1.188.297 2.165 1.013 2.74 2.016.4.69.56 1.486.443 2.268.043-.027.085-.05.128-.076.807-.506 1.795-.658 2.723-.428.922.233 1.716.834 2.2 1.662.522.918.644 1.995.347 3.035-.364 1.216-1.383 2.465-4.48 4.56.842.267 1.563.837 2.012 1.613 1.687 2.905-.484 5.558-4.53 8.87 1.845.454 2.814 1.545 3.3 2.388.17.3.297.62.376.95.23-.13.365-.204.39-.216 1.69-.937 3.82-.342 4.778 1.343.964 1.68.388 3.817-1.28 4.794-.394.227-39.218 22.92-77.708 45.28-11.195 6.51-21.286 12.355-30.195 17.513-7.325 4.524-14.1 8.8-20.182 12.745l132.676-76.6c.812-.47 1.776-.59 2.68-.354.903.243 1.68.837 2.147 1.646.497.876.994 2.335.448 4.285-.012.02-.02.048-.024.076.067.013.14.028.207.043.922.233 1.723.833 2.202 1.662 1.06 1.847.636 3.33-1.063 5.055.103.024.23.055.352.09.908.244 1.685.838 2.152 1.65.2.346.34.676.43.992 9.527-5.534 12.954-6.68 14.943-6.195 1.08.258 1.958.91 2.492 1.837 1.704 2.95-1.092 5.006-2.936 6.365-1.37 1.01-3.45 2.443-6.16 4.26-3.08 2.052-7.06 4.656-11.904 7.773 12.48-7.57 20.32-12.317 20.52-12.435 1.633-.99 3.755-.5 4.792 1.1 1.043 1.602.625 3.737-.946 4.825-.097.07-2.443 1.692-6.543 4.506.26.026.478.08.678.136 1.073.267 1.953.925 2.493 1.85.978 1.686.39 3.848-1.29 4.824-.874.5-1.863.59-2.767.33-4.45 1.013-20.94 9.852-43.512 22.784-12.26 8.13-25.82 16.995-39.562 25.773-50.007 31.93-76.672 46.24-91.324 52.505-7.957 4.883-15.604 9.6-22.787 14.046-.567.346-1.21.528-1.862.528zm151.818-127.758l-127.57 73.657c20.813-11.313 57.406-31.237 89.116-49.876 17.174-10.098 29.545-17.845 38.453-23.782zM177.52 265.055c-.447.716-.714 1.315-.857 1.8l-.01.037c3.246-.242 13.69-3.5 47.043-22.71 13.21-8.594 29-18.743 45.022-28.767 19.88-12.435 35.422-21.765 47.617-28.748 13.02-8.46 24.36-15.934 32.493-21.32-1.013.532-2.056 1.084-3.153 1.666-18.103 11.12-44.962 27.532-71.984 43.724-62.194 37.262-86.224 50.084-96.17 54.318zm67.718-45.626c-6.604 3.625-13.026 7.225-19.12 10.742-6.95 4.015-12.937 7.62-18.097 10.867 10.918-6.195 23.604-13.572 37.218-21.61z" fill="#AAB4BE"/><path d="M333.454 487.563c-.485 0-.843-.085-1.165-.164-1.116-.262-2.038-.935-2.59-1.893-.48-.83-.6-1.808-.34-2.73.17-.58.48-1.103.897-1.527-.242-.242-.448-.51-.618-.807-.305-.515-.492-1.03-.57-1.564-15.453 8.6-16.836 8.234-18.12 7.913-.983-.242-1.81-.867-2.306-1.734-.485-.832-.612-1.826-.34-2.748.194-.66.57-1.256 1.092-1.698-.22-.212-.4-.454-.552-.733-.315-.558-.46-1.17-.455-1.776-.94-.206-1.783-.782-2.3-1.674-.964-1.655-.442-3.76 1.165-4.772-2.668 1.17-3.863 1.273-4.833 1.025-1-.255-1.832-.874-2.34-1.753-.147-.255-.262-.497-.354-.74-3.85 1.692-4.67 1.48-5.476 1.28-.994-.255-1.813-.874-2.316-1.747-.067-.11-.128-.23-.2-.363-6.884 3.178-12.063 4.56-15.428 3.81-2.456-.548-3.742-2.003-4.39-3.118-.39-.668-.76-1.662-.698-2.94-.407.035-.825 0-1.23-.11-.91-.236-1.675-.83-2.147-1.644-.358-.624-.716-1.485-.813-2.553-.285-.024-.51-.085-.722-.14-1.092-.273-1.995-.94-2.54-1.88-.475-.83-.602-1.82-.33-2.74.262-.93.893-1.693 1.742-2.147.12-.06 3.77-1.983 9.88-5.27 12.94-10.668 41.042-25.223 80.733-45.21 51.47-30.39 62.918-41.518 65.435-45.168-3.25.303-11.844 2.978-34.306 15.452L249.465 463.48c-1.622 1.05-3.775.59-4.845-1.013-1.064-1.606-.65-3.766.937-4.857.18-.127 8.3-5.73 20.953-14.264-3.427 1.808-6.84 3.614-10.255 5.41-4.208 2.213-8.063 4.245-10.573 5.59l-3.223 1.862c-1.687.977-3.85.4-4.825-1.29-.482-.832-.6-1.833-.336-2.755.21-.733.332-1.14 1.654-2.03l-.027-.05 1.16-.667 1.05-.606 135.424-78.182c4.44-3.33 7.617-5.997 9.88-8.126-14.658 8.51-42.688 24.785-70.76 41.05-20.327 11.77-40.673 23.542-55.99 32.354-7.658 4.408-14.065 8.084-18.57 10.643-8.34 4.73-8.34 4.735-9.868 4.33-.91-.25-1.68-.838-2.15-1.656-.442-.76-.87-1.93-.67-3.444-.594.072-1.08.042-1.498-.062-1.046-.255-1.917-.897-2.444-1.813-.052-.085-.103-.188-.15-.285-5.014 2.23-8.37 3.08-10.308 2.607-1.276-.31-2.326-1.073-2.95-2.146-.488-.854-.604-1.86-.318-2.8.01-.02.02-.056.027-.074l-3.87 2.238c-.81.467-1.778.588-2.682.346-.907-.243-1.68-.83-2.144-1.65-.395-.673-.773-1.582-.928-2.698-4.645 2.414-5.22 2.262-6.076 2.038-.91-.237-1.71-.843-2.183-1.662-.473-.818-.93-2.092-.688-3.735-1.293.06-2.572-.582-3.254-1.777-.437-.775-.558-1.644-.39-2.45-.774-.6-1.293-1.28-1.636-1.873-.442-.765-.873-2.026-.412-3.688.143-.51.313-1.134.9-2.056-7.256 4.116-11.634 6.572-11.77 6.645-1.693.952-3.836.357-4.798-1.334-.564-.98-.597-2.122-.197-3.086-.743-.346-1.353-.892-1.762-1.6-.942-1.633-.433-3.72 1.15-4.737l5.704-3.67c-3.924 1.79-6.246 2.323-7.68 1.983-1.11-.278-2.032-.952-2.587-1.916-.524-.903-.66-1.753-.485-2.577-4.718 3.086-9.42 6.186-14.076 9.266-.813.54-1.807.73-2.762.504-.946-.225-1.762-.83-2.25-1.68-.303-.528-.485-1.02-.552-1.504-4.145 2.2-4.71 2.062-5.628 1.82-.272-.068-.533-.178-.78-.305-3.225.546-4.826.2-5.878-.03-1.874-.4-3.13-1.243-3.973-2.11-44.288 25.016-48.036 24.082-50.137 23.554-1.15-.278-2.092-.976-2.656-1.952-.955-1.65-.425-3.76 1.194-4.767l57.954-36.017c-11.834 6.04-23.03 11.813-32.135 16.7-14.033 9.19-22.79 15.01-23.008 15.156-.813.54-1.81.716-2.762.503-.95-.225-1.765-.83-2.253-1.68-.56-.97-.688-2.123-.358-3.238.752-2.523 5.112-5.907 17.123-12.645-.03-.036-.058-.085-.085-.127-1.537-2.668-.006-4.985 4.324-8.48-.988-.702-1.63-1.526-2.044-2.242-.167-.29-.294-.6-.388-.922-1.355.164-2.74-.484-3.466-1.746-.525-.897-.655-1.97-.367-3.002.402-1.455 2.437-3.517 7.81-7.204-.2-.206-.38-.437-.528-.697-2.31-4.002 1.116-8.416 14.094-18.144 1.295-.977 2.687-1.99 4.166-3.068-.027-.037-.058-.073-.084-.115-.403-.576-.61-1.23-.634-1.88-1.165.127-1.847-.02-2.386-.134-1.425-.31-2.587-1.13-3.266-2.317-.93-1.607-.455-3.67 1.09-4.694 3.918-2.627 7.888-5.32 11.814-7.993-.825.254-1.258.15-1.89-.007-.933-.23-1.764-.85-2.25-1.686-.145-.255-.27-.503-.366-.764-3.994 1.76-5.185 1.485-6.13 1.28-1.18-.262-2.15-.972-2.736-1.98-.737-1.278-1.652-2.86 1.577-6.62-.117-.147-.223-.31-.317-.468-.86-1.492-.52-3.384.81-4.487l7.302-6.053c-.18-.018-.367-.066-.582-.12-.95-.213-1.77-.832-2.262-1.675-1.612-2.796.64-4.79 3.49-7.326 1.845-1.642 4.44-3.82 7.188-6.136l.794-.667c-4.91 3.153-10.176 6.683-15.058 10.073-.81.563-1.822.764-2.786.545-.964-.212-1.792-.83-2.29-1.68-1.025-1.776-2.144-3.71 6.74-11.904-.463-.302-.854-.708-1.14-1.2-1.345-2.328-.023-4.523 2.242-6.846-1.08-.255-1.97-.904-2.514-1.844-1.534-2.662.306-4.445 3.984-8 1.674-1.624 3.814-3.62 6.13-5.784-.135-.03-.27-.06-.41-.097-.926-.23-1.732-.85-2.21-1.67-.674-1.17-1.32-3.11-.547-5.67.127-.424.297-.86.51-1.298-.21-.012-.413-.042-.616-.084-.916-.2-1.716-.752-2.22-1.547-2.068.51-3.645.613-4.75.347-1.37-.34-2.48-1.146-3.134-2.286-1.167-2.02-.494-3.82 1.747-5.997-.573-.32-1.043-.782-1.376-1.358-.47-.824-.6-1.86-.352-2.77.36-1.322.567-2.08 10.364-8.006-.207-.207-.39-.443-.55-.704-.988-1.656-.463-3.803 1.177-4.815L315.91 132.185c-3.136 1.143-7.2 2.84-12.45 5.35l-73.41 42.386c-3.432 2.165-6.983 4.424-10.66 6.783-48.513 31.083-95.263 63.833-95.727 64.16-.813.568-1.828.768-2.792.56-.97-.216-1.8-.826-2.294-1.687-.482-.83-.946-2.21-.428-4.05.112-.398.243-.868.546-1.478l-7.387 4.267c-1.452.84-3.256.527-4.35-.652-20.535 9.31-26.072 8.11-28.752 7.532-3.172-.685-4.773-2.45-5.558-3.81-.482-.836-.604-1.84-.33-2.767.278-.925.918-1.7 1.78-2.144.08-.04 1.188-.603 3.192-1.634-.556-.294-1.038-.734-1.387-1.307-.992-1.65-.476-3.793 1.158-4.815l28.916-18.087c-.683.12-1.307.204-1.87.262-7.833 4.03-12.506 6.398-12.657 6.477-1.696.86-3.767.22-4.686-1.444-.92-1.662-.364-3.757 1.267-4.736.11-.063 2.306-1.386 6.18-3.71-.126-.183-.24-.356-.332-.525-.527-.91-.652-1.983-.354-3.014.57-1.967 3.153-4.247 13.484-10.187-.99-.306-1.798-.943-2.3-1.816-.96-1.656-.423-3.778 1.218-4.78l16.94-10.348c-.34-.3-.627-.653-.85-1.05-.486-.837-.607-1.837-.334-2.765.273-.925.916-1.7 1.777-2.144.178-.09 7.895-4.05 19.89-10.378-.594-.045-1.04-.146-1.413-.228-2.162-.485-3.278-1.73-3.836-2.693-.536-.936-.675-2.045-.378-3.134.437-1.604 2.46-3.742 6.898-6.978l-.11-.176c-.95-1.652-.42-3.763 1.202-4.77l8.466-5.246c-.23-.273-.41-.542-.555-.794-.573-.995-.713-2.183-.394-3.345.832-3 6.154-7.26 19.553-15.328-.725-2.74 2.102-5.435 13.124-12.94-.528-.994-.64-2.173-.318-3.338.287-1.034.678-2.456 4.614-5.882-1.613-3.45 1.85-6.628 13.05-14.476l1.856-1.29c-1.234-2.558.895-4.26 3.142-6.06 1.407-1.123 3.43-2.693 5.87-4.562 4.127-3.156 9.84-7.468 16.992-12.813-.07-.098-.13-.198-.188-.3-.82-1.417-.558-3.206.627-4.33 1.75-1.66 3.787-3.597 5.867-5.58-.297-.267-.552-.583-.755-.937-1.698-2.94-.088-4.484 7.795-11.146-.218-1.334.343-2.73 1.54-3.517 7.23-4.76 7.867-4.612 9.258-4.282.946.225 1.792.852 2.274 1.692 1.252 2.165.027 3.926-1.468 5.4.118.146.228.303.324.47.382.664.57 1.237.567 1.795 1.155-.397 2.152-.494 3.12-.31 1.307.252 2.39 1.017 3.038 2.154.903 1.558.485 3.538-.958 4.608-3.44 2.544-7.287 5.394-11.283 8.363 12.702-7.83 22.496-13.705 22.636-13.79 1.644-.992 3.79-.48 4.803 1.152.893 1.413.656 3.217-.466 4.36 1.104.103 2.146.728 2.734 1.77.96 1.69.377 3.834-1.304 4.804l-4.76 2.75c.558.406 1.02.922 1.376 1.525.328.583.485 1.22.467 1.848 4.21-2.068 4.846-1.9 5.677-1.683.922.237 1.74.855 2.214 1.674.57.997.71 2.185.388 3.34-.23.846-.8 1.783-1.795 2.862.723-.024 1.384.03 1.978.164 2.153.473 3.293 1.755 3.863 2.747.413.71.583 1.522.517 2.344.618-.43.958-.667.994-.69.814-.562 1.82-.762 2.79-.547.96.216 1.79.822 2.287 1.68.6 1.04 1.17 2.765.48 5.112-.14.452-.293.992-.608 1.667.545.28 1.03.706 1.376 1.264.437.697.6 1.486.52 2.244 2.202-1.368 4.38-2.717 6.502-4.036.807-.503 1.79-.658 2.724-.422.92.23 1.722.83 2.195 1.656.66 1.143 1.29 3.047.545 5.62-.37 1.28-1.115 2.68-2.207 4.19 3.814-1.638 4.585-1.438 5.3-1.256.916.237 1.813.91 2.293 1.73.952 1.648.425 3.753-1.183 4.76l-17.95 11.228c-2.44 2.174-5.786 4.85-10.4 8.175l28.368-16.38c.82-.47 1.777-.59 2.688-.355.897.243 1.68.834 2.147 1.646.57.99 1.104 2.63.455 4.858-.08.25-.164.53-.273.84.042.058.072.115.108.18.57.987 1.122 2.45 1.024 4.332l6.695-3.866c1.668-.967 3.814-.406 4.81 1.262.34.58.49 1.213.49 1.834.207-.115.334-.18.346-.19 1.698-.92 3.833-.314 4.78 1.375.933 1.688.35 3.816-1.317 4.787l-7.24 4.175c2.31.637 3.523 2.007 4.142 3.072.952 1.652.412 3.766-1.207 4.772l-6.797 4.203 8.696-5.028c.812-.464 1.775-.59 2.68-.35.903.244 1.68.835 2.146 1.647.304.518.48 1.087.534 1.682.066-.042.103-.064.12-.073 1.675-.968 3.82-.404 4.81 1.264.25.428.406.89.46 1.355.602-.17 1.16-.325 1.7-.46 4.62-2.382 6.233-2.646 7.428-2.352 1.007.246 1.844.874 2.354 1.753.012.028.03.06.048.085 2.687.68 4.082 2.235 4.773 3.438.764 1.32 1.485 3.5.605 6.398-4.45 14.755-49.86 38.218-124.13 75.108-29.183 14.497-56.75 28.19-77.707 40.05-11.276 6.375-18.714 11.185-23.607 14.77 1.667-1.008 3.37-2.04 5.018-3.045.81-.504 1.79-.65 2.715-.42.925.237 1.71.838 2.19 1.663 1.643 2.85-.525 4.973-5.286 9.63-1.117 1.092-2.36 2.28-3.68 3.535 3.242-2.103 6.557-4.298 9.69-6.433 1.585-1.08 3.747-.69 4.86.867 1.116 1.56.786 3.724-.75 4.875-2.103 1.582-4.238 3.208-6.354 4.84.06.005.122.018.18.03 1.157.26 2.112.95 2.688 1.952.903 1.56.485 3.554-.97 4.614-1.12.82-2.25 1.65-3.384 2.5 2.875-1.105 3.845-.887 4.44-.76 1.145.268 2.085.946 2.655 1.93 1.006 1.752.843 3.383-1.395 6.112 1.292-.376 2.202-.4 2.996-.22 1.107.262 2.017.936 2.57 1.888.862 1.49.52 3.39-.806 4.487l-6.034 5.003c.342-.012.676.067 1.052.158.928.23 1.765.86 2.247 1.69.458.796.573 1.705.388 2.536 1.392-.946 2.77-1.892 4.12-2.838.814-.564 1.826-.765 2.79-.546.964.212 1.792.83 2.287 1.68.236.412.385.788.467 1.158 6.832-3.887 9.02-4.427 10.71-4.01 1.033.256 1.895.893 2.413 1.803 1.93 3.335-.98 6.058-9.172 12.407-.2.158-.407.315-.613.48l16.468-11.5c1.592-1.115 3.784-.727 4.906.855.057.084.11.17.16.254 8.16-3.87 10.255-3.408 11.565-3.117 1.376.31 2.5 1.098 3.162 2.244.97 1.687.403 3.834-1.264 4.816C175 339.42 151.16 354.266 133.19 366.31l275.56-159.098c.813-.467 1.776-.595 2.68-.352.904.242 1.68.833 2.142 1.646.63 1.085.776 2.402.412 3.706-1.237 4.47-10.212 13.187-66.963 46.39-7.41 4.33-15.257 8.872-23.443 13.548-.867 2.165-3.487 4.967-7.72 8.38-.2.25-.43.48-.704.668-.036.024-.363.26-.964.69.562.043.976.14 1.345.225 1.813.438 2.766 1.51 3.245 2.33.018.042.036.072.055.103.928.024 1.546.17 2.067.29 2.093.486 3.178 1.7 3.705 2.627.96 1.65.425 3.76-1.188 4.767l-7.757 4.814c-1.42 1.704-3.214 3.518-5.35 5.44.553-.134 1.13-.134 1.698 0 .936.236 1.724.83 2.21 1.66.55.965.696 1.856.466 2.767 1.534-.94 2.347-1.448 2.347-1.448 1.613-1 3.736-.54 4.803 1.05 1.05 1.576.668 3.71-.88 4.826-.132.085-4.195 3.014-11.042 7.848 7.44-2.99 9.46-2.517 10.758-2.2 1.358.313 2.475 1.097 3.153 2.2 2.408-.82 4.106-1.03 5.27-.746 1.195.29 2.184 1.013 2.767 2.025.94 1.63.437 3.718-1.146 4.742l-77.727 49.977c29.86-17.848 62.625-37.938 88.332-53.948.813-.51 1.8-.66 2.723-.43.928.23 1.723.83 2.202 1.66.236.413.394.855.473 1.316 7.538-4.264 12.1-6.805 12.238-6.883 1.352-.766 2.983-.535 4.08.453 12.13-6.938 20.62-10.267 25.362-9.23 2.42.528 3.68 1.953 4.312 3.045.752 1.298 1.443 3.463.52 6.416-.175.57-.4 1.292-.866 2.232 8.017-4.288 8.793-4.094 9.86-3.81.91.237 1.734.862 2.208 1.687.654 1.128.794 2.48.4 3.803-.28.922-.904 1.935-1.91 3.038.38.285.72.655.976 1.092.673 1.176 1.316 3.147.497 5.82-.54 1.772-1.56 5.132-10.303 12.58.467.35.86.78 1.152 1.29.533.928 1.05 2.45.46 4.457-.006.043-.023.08-.03.11.115.023.23.048.346.078.91.237 1.687.838 2.153 1.645.68 1.177 1.322 3.13.546 5.798-.042.17-.097.346-.157.515l31.85-18.387c1.67-.957 3.79-.424 4.792 1.226.994 1.638.503 3.772-1.122 4.804l-11.868 7.586c.916.02 1.547.158 2.056.273 2.245.508 3.392 1.794 3.96 2.776.553.952 1.08 2.547.462 4.693-.12.436-.278.957-.606 1.643.206.02.406.05.606.098.935.225 1.73.83 2.208 1.662.71 1.226.86 2.692.43 4.13-.412 1.407-1.485 2.936-3.28 4.646.85 1.674.25 3.724-1.39 4.663l-.933.547c.843.395 1.534 1.013 1.995 1.82.977 1.685.4 3.838-1.273 4.814l-6.624 3.863c.17.2.334.413.46.644.335.576.492 1.225.468 1.867.22-.127.425-.26.63-.382.82-.497 1.796-.643 2.718-.412.922.236 1.71.837 2.184 1.66 1.46 2.518.08 4.35-3.342 6.885.188.193.352.43.498.673 1.582 2.747.654 5.354-7.332 11.62.363.278.68.63.91 1.03.448.776.624 1.66.515 2.57.595.298 1.11.77 1.468 1.384.63 1.098.776 2.432.4 3.747-.413 1.425-1.074 3.71-10.22 10.43-.31.56-.763 1.03-1.327 1.36-.043.017-.085.04-.127.065-.354.218-1.433.867-3.076 1.874 1.08.277 1.97.944 2.517 1.885.607 1.05.747 2.316.39 3.56-.304 1.086-.746 2.626-5.222 6.355.157 1.698-1.243 4.445-8.333 10.722.564.23 1.08.62 1.48 1.14 1.17 1.57.85 3.785-.716 4.95-14.47 10.812-32.967 23.414-38.77 22.25-1.33-.273-2.402-1.044-3.052-2.16-.873-1.51-.503-3.426.844-4.512-14.183 8.26-18.38 9.583-20.338 9.583zm-43.445-30.935c-7.108 5.228-9.97 8.145-11.093 9.722.364-.02.818-.073 1.395-.2 1.213-1.534 3.45-3.087 6.174-4.974 3.603-2.486 8.963-5.967 15.943-10.352 10.15-6.373 23.868-14.748 40.86-24.95l-53.28 30.754zm72.02-32.117c-7.91 5.514-15.35 10.662-22.318 15.41 18.182-10.648 39.358-23.335 58.618-34.984-10.206 5.354-23.16 12.26-36.3 19.575zM229.5 430.4l-4.26 2.46c1.15-.575 2.37-1.187 3.652-1.83.194-.206.397-.42.61-.63zm29.656-47.412c-32.878 19.97-57.79 36.332-64.304 43.19.148-.024.303-.055.473-.09 13.03-8.733 48.36-32.258 84.834-55.192 2.358-1.492 4.656-2.93 6.92-4.337l-4.337 2.498c-6.993 4.172-14.743 8.744-23.366 13.796-.075.05-.148.085-.22.134zM157.14 404.396c-6.688 3.996-12.36 7.44-16.454 10.006.237-.066.48-.14.734-.206 1.25-.782 2.91-1.825 4.93-3.087 2.902-1.814 6.546-4.083 10.79-6.714zm-47.528-7c-2.58 1.596-4.703 2.98-6.268 4.1.112-.006.222-.012.337-.03 1.762-1.23 3.74-2.59 5.932-4.07zm101.77-35.536l-53.25 33.093c21.52-12.65 45.544-27.077 69.5-41.656-5.253 2.79-10.678 5.652-16.25 8.563zm101.29-2.765c-6.496 4.56-13.088 9.212-19.6 13.81-1.202.848-2.385 1.685-3.573 2.516 1.236-.636 2.485-1.284 3.747-1.928 22.28-11.528 45.32-23.438 62.493-33.232 6.26-3.565 11.165-6.525 15.01-8.993 4.27-3.166 7.793-6.064 10.43-8.63-7.24 2.158-25.003 10.095-68.51 36.458zm67.398-4.44c-6.004 4.18-13.548 9.097-23.008 14.89 2.383-1.33 4.682-2.64 6.87-3.9 10.723-6.192 16.86-10.353 20.365-13.105-1.273.6-2.686 1.31-4.227 2.115zM259.178 320.15c-12.47 8.477-26.135 17.616-40.025 26.67-9.17 5.985-17.63 11.39-25.418 16.283 4.587-2.37 9.172-4.75 13.733-7.132l93.555-58.14c-8.983 4.187-22.257 11.082-41.845 22.32zM98.023 242.22c-4.124 2.146-7.73 4.017-10.734 5.566 3.04-.758 6.673-2.017 10.818-3.717-.125-.54-.176-1.16-.085-1.85zM297.56 119.73L110.53 227.708c22.27-11.69 52.112-27.568 81.87-44.04 39.925-22.098 66.557-37.972 84.298-49.35 7.137-4.944 14.112-9.825 20.86-14.586zm30.69 33.86c-14.36 8.803-33.33 20.778-51.96 32.537-16.694 10.54-32.013 20.167-46.024 28.902.958-.477 1.922-.953 2.89-1.435 51.953-25.81 116.624-57.933 120.518-70.826.176-.58.066-.756.03-.826-.055-.042-.825-.588-3.814-.155-4.21 2.283-11.773 6.395-21.64 11.8zm-172.355 4.874c-1.883 1.195-3.578 2.302-5.067 3.305 9.033-3.458 28.63-13.257 70.835-40.244 5.986-3.827 11.917-7.674 17.65-11.428-6.734 3.86-14.345 8.2-22.95 13.087-9.906 5.625-20.592 11.692-30.628 17.487-13.797 9.323-23.37 15.182-29.84 17.792zM293.46 97.766c-17.51 10.8-49.29 30.325-81.324 49.543-1.446.866-2.87 1.722-4.272 2.564 1.165-.637 2.335-1.27 3.496-1.904 27.163-15.96 46.84-27.335 61.147-35.425 9.903-6.362 16.525-11.168 20.952-14.78z" fill="#AAB4BE"/><path d="M144.594 146.023c-.306 0-.616-.036-.916-.118-.907-.243-1.677-.834-2.144-1.646-.643-1.117-.728-2.1-.246-3.285-7.7 4.518-9.406 4.145-10.395 3.93-1.122-.243-2.05-.91-2.61-1.88-.946-1.64-.43-3.733 1.164-4.75 4.35-2.76 8.815-5.672 13.063-8.507-.133-.14-.258-.288-.373-.452-1.046-1.51-.76-3.572.658-4.74l13.412-11.057c-8.063 4.874-14.424 8.553-14.512 8.604-1.683.967-3.826.406-4.81-1.26-.402-.69-.554-1.457-.47-2.19-.642-.406-1.172-.958-1.558-1.622-.99-1.708-.682-3.08.6-4.485-2.237.858-2.896.694-3.59.52-.988-.25-1.813-.87-2.316-1.74-.936-1.624-.442-3.702 1.135-4.723l5.764-3.754c-.392-.307-.723-.686-.977-1.128-.477-.822-.6-1.8-.343-2.717.255-.916.87-1.69 1.704-2.147.83-.452 1.665-.91 2.495-1.368-.346-.042-.63-.11-.89-.167-1.436-.318-2.6-1.146-3.286-2.332-.188-.326-.34-.645-.443-.966-.8.1-1.506.08-2.127-.06-1.362-.3-2.48-1.105-3.15-2.263-.66-1.145-.613-2.513.027-3.577-.455-.373-.84-.82-1.134-1.33-1.868-3.243.388-5.972 8.278-11.22-.937-1.85-.297-3.463 1.73-5.443-.48-.303-.888-.72-1.176-1.222-.33-.573-.67-1.162-.676-1.932l-1.847 1.067c-.813.464-1.774.59-2.68.352-.908-.243-1.678-.834-2.147-1.65-1.332-2.297-.3-4.266 2.625-6.903-.458-.315-.837-.728-1.12-1.22-1.437-2.49-.348-3.55 4.24-8.025 1.495-1.46 3.333-3.232 5.282-5.106-.36-.302-.673-.672-.916-1.093-.308-.528-.468-1.128-.474-1.735-.003-.282-.006-.57-.006-.873-2.362 1.467-3.724 1.876-5.146 1.567-1.05-.228-1.956-.885-2.492-1.807-.606-1.05-.664-1.907-.215-3.217-.403-.264-.755-.61-1.037-1.04-1.064-1.634-.604-3.82 1.03-4.885 4.752-3.102 5.705-3.514 7.303-3.132.943.228 1.773.843 2.256 1.686.19.328.323.625.408.925.643-.28 1.262-.352 2.068-.185.973.212 1.82.825 2.32 1.69.345.59.45.78.508 3.528.54-.44 1.067-.88 1.528-1.264 4.852-4.06 7.514-6.152 10.343-5.652 1.246.218 2.32.974 2.954 2.068.814 1.416.554 3.208-.635 4.333-2.18 2.062-4.72 4.473-7.314 6.938 8.394-5.06 18.47-11.398 27.982-17.593.516-.337.804-.52.822-.534 1.634-1.064 3.824-.6 4.885 1.034.645.99.73 2.18.332 3.205l5.416-3.126c1.68-.97 3.83-.4 4.81 1.267.54.916.618 1.977.31 2.91.997.392 1.812 1.086 2.34 1.996.3.525.455 1.098.47 1.665 11.347-6.4 12.026-6.225 13.3-5.895.915.24 1.724.855 2.197 1.674.4.69.598 1.365.598 2.04.682-.072 1.36.055 1.968.358 5.507-2.87 9.267-3.975 11.8-3.42 1.476.324 2.686 1.19 3.404 2.438.512.89.728 1.71.58 2.56.35-.03.714-.003 1.063.072.964.216 1.795.828 2.292 1.686.487.84.96 2.242.436 4.11-.52 1.865-1.534 5.473-18.363 17.292-.03 1.12-.597 2.204-1.604 2.862l-1.908 1.24c.503.31.934.74 1.234 1.26 2.738 4.743-2.362 10.48-25.452 25.16.085.457.082.912-.003 1.366.474.307.875.722 1.153 1.21.867 1.495.52 3.396-.81 4.49l-21.695 17.885c.45.3.828.7 1.1 1.173 1.696 2.936 1.008 5.264-12.734 15.076.458 2.762-2.26 5.907-7.33 11.783-.13.146-.26.3-.396.458.65 1.607.037 3.487-1.51 4.378l-3.65 2.107c-.542.312-1.148.473-1.764.473z" fill="#AAB4BE"/></svg>
