<svg height="32" viewBox="0 0 32 32" width="32" fill="#AAB4BE" xmlns="http://www.w3.org/2000/svg"><path d="M29 27H3c-.552 0-1-.447-1-1V10c0-.552.448-1 1-1s1 .448 1 1v15h24V7H3c-.552 0-1-.448-1-1s.448-1 1-1h26c.553 0 1 .448 1 1v20c0 .553-.447 1-1 1z"/><circle cx="24" cy="11" r="2"/><path d="M6 23c-.256 0-.512-.098-.707-.293-.39-.39-.39-1.023 0-1.414l8-8c.39-.39 1.023-.39 1.414 0l3 3c.39.39.39 1.023 0 1.414s-1.023.39-1.414 0L14 15.414l-7.293 7.293c-.195.195-.45.293-.707.293zM25 23c-.256 0-.512-.098-.707-.293L21 19.414l-3.293 3.293c-.39.39-1.023.39-1.414 0s-.39-1.023 0-1.414l4-4c.39-.39 1.023-.39 1.414 0l4 4c.39.39.39 1.023 0 1.414-.195.195-.45.293-.707.293z"/></svg>
